<svg width="535" height="427" viewBox="0 0 535 427" fill="none" xmlns="http://www.w3.org/2000/svg">
    <path opacity="0.5" d="M15.316 371.907L91.4792 387.559L321.157 291.122L242.448 279.957L15.316 371.907Z" fill="url(#paint0_linear_113_8933)"/>
    <path d="M467.676 221.586L352.062 208.868C344.355 208.02 338.322 200.43 338.478 191.903C338.634 183.376 344.922 176.943 352.634 177.543L468.316 186.54C478.134 187.303 486.078 195.907 485.898 205.744C485.719 215.58 477.488 222.665 467.676 221.586Z" fill="url(#paint1_linear_113_8933)"/>
    <path d="M373.283 187.114L375.027 193.617L381.106 194.172L376.109 197.651L377.867 204.203L373.052 199.779L368.153 203.189L370.105 197.072L365.384 192.735L371.316 193.277L373.283 187.114Z" fill="#FFF37C"/>
    <path d="M393.385 188.791L395.222 195.463L401.615 196.047L396.362 199.602L398.213 206.326L393.148 201.777L388.001 205.26L390.05 198.994L385.086 194.536L391.321 195.106L393.385 188.791Z" fill="#FFF37C"/>
    <path d="M414.531 190.556L416.468 197.405L423.199 198.021L417.67 201.655L419.622 208.56L414.288 203.878L408.873 207.438L411.026 201.015L405.802 196.43L412.361 197.03L414.531 190.556Z" fill="#FFF37C"/>
    <path d="M436.805 192.414L438.85 199.451L445.947 200.1L440.119 203.818L442.18 210.913L436.555 206.092L430.851 209.731L433.116 203.144L427.609 198.424L434.521 199.055L436.805 192.414Z" fill="#FFF37C"/>
    <path d="M460.298 194.374L462.46 201.61L469.954 202.295L463.802 206.1L465.983 213.397L460.042 208.427L454.024 212.149L456.41 205.388L450.599 200.525L457.892 201.192L460.298 194.374Z" fill="#FFF37C"/>
    <path opacity="0.6" d="M197.778 335.699L447.314 248.88L584 267.59L374.421 349.978C366.26 354.085 357.063 355.672 347.998 354.535L197.778 335.699Z" fill="url(#paint2_linear_113_8933)"/>
    <path d="M376.367 17.7657C374.076 0.85056 346.217 -5.52383 346.236 5.43123L225.84 11.0973C218.011 11.4658 211.432 18.6418 211.085 27.1284L199.369 313.673C199.023 322.16 204.994 329.85 212.766 330.857L332.49 346.37C333.205 347.984 334.617 349.548 336.893 350.99C351.613 353.099 359.087 347.303 362.087 340.052C363.044 338.12 363.623 335.926 363.72 333.553C363.394 329.522 377.14 21.7265 376.367 17.7657Z" fill="#666666"/>
    <path d="M335.528 350.869L198.884 333.164C190.947 332.136 184.85 324.284 185.205 315.618L197.167 23.0333C197.522 14.3678 204.239 7.04047 212.233 6.66432L349.866 0.187148C359.171 -0.250769 366.465 7.05963 366.078 16.5193L353.02 335.917C352.633 345.377 344.766 352.066 335.528 350.869Z" fill="#757575"/>
    <path d="M337.658 348.869C337.046 348.869 336.422 348.829 335.803 348.749L199.158 331.043C192.333 330.159 187.031 323.279 187.341 315.706L199.304 23.1208C199.613 15.5482 205.458 9.12419 212.333 8.80077L349.966 2.32332C350.197 2.31253 350.429 2.30701 350.658 2.30701C354.365 2.30701 357.771 3.7296 360.25 6.31273C362.79 8.95857 364.101 12.5524 363.942 16.4317L350.883 335.83C350.579 343.263 344.894 348.869 337.658 348.869Z" fill="#595959"/>
    <path d="M345.666 335.713L191.518 317.014L203.697 19.154L358.866 12.8655L345.666 335.713Z" fill="white"/>
    <path d="M357.641 42.8209L202.567 46.7911L203.697 19.154L358.866 12.8655L357.641 42.8209Z" fill="#1FBFC7"/>
    <path d="M345.253 31.0953L335.883 31.3918C335.698 31.3978 335.539 31.2807 335.489 31.1024L333.937 25.4897C333.901 25.3589 333.93 25.2134 334.015 25.0983C334.099 24.9833 334.23 24.9124 334.366 24.9077L347.327 24.4548C347.465 24.4499 347.592 24.5122 347.669 24.6225C347.745 24.7327 347.762 24.8776 347.715 25.0123L345.676 30.7786C345.611 30.9613 345.44 31.0893 345.253 31.0953ZM336.231 30.5109L344.974 30.2303L346.699 25.3508L334.915 25.7575L336.231 30.5109Z" fill="white"/>
    <path d="M344.381 33.5333L336.392 33.7764C336.156 33.7836 335.973 33.5945 335.982 33.3539C335.992 33.1134 336.191 32.9125 336.427 32.9052L344.102 32.6682C344.627 32.6387 344.879 32.262 344.933 31.8841C344.98 31.5455 344.868 31.2059 344.649 31.1143L347.714 22.4022C347.779 22.2186 347.95 22.0893 348.138 22.0826L350.953 21.9809C351.192 21.9722 351.378 22.1617 351.369 22.404C351.359 22.6463 351.156 22.8497 350.917 22.8582L348.418 22.9473L345.602 31.0359C346.218 32.118 345.263 33.5064 344.381 33.5333Z" fill="white"/>
    <path d="M338.946 35.158C338.923 35.7119 338.464 36.174 337.92 36.1898C337.377 36.2057 336.955 35.7698 336.978 35.2164C337 34.6629 337.459 34.201 338.002 34.1847C338.546 34.1682 338.969 34.604 338.946 35.158Z" fill="white"/>
    <path d="M343.916 35.0103C343.893 35.5657 343.432 36.0289 342.886 36.0448C342.34 36.0607 341.915 35.6239 341.938 35.069C341.961 34.5142 342.422 34.051 342.968 34.0346C343.514 34.0183 343.939 34.455 343.916 35.0103Z" fill="white"/>
    <path d="M340.79 31.2365C340.553 31.244 340.369 31.0547 340.379 30.8137L340.611 25.1252C340.621 24.8842 340.821 24.682 341.058 24.6738C341.295 24.6656 341.479 24.8542 341.469 25.0954L341.237 30.7864C341.227 31.0274 341.027 31.229 340.79 31.2365Z" fill="white"/>
    <path d="M338.401 31.3123C338.205 31.3185 338.034 31.1868 337.997 30.9859L336.965 25.348C336.922 25.1152 337.076 24.8768 337.309 24.8155C337.541 24.7542 337.764 24.8934 337.807 25.1263L338.84 30.7663C338.883 30.9995 338.729 31.2377 338.496 31.2984C338.464 31.3067 338.432 31.3112 338.401 31.3123Z" fill="white"/>
    <path d="M343.086 31.1639C343.065 31.1646 343.044 31.1638 343.023 31.1613C342.79 31.134 342.636 30.9175 342.68 30.6776L343.728 24.954C343.772 24.714 343.998 24.5406 344.231 24.5674C344.465 24.5939 344.619 24.8101 344.575 25.0503L343.526 30.7761C343.486 30.9948 343.296 31.1573 343.086 31.1639Z" fill="white"/>
    <path d="M346.27 28.2494L335.116 28.6181C334.881 28.6259 334.698 28.4374 334.708 28.1971C334.717 27.9567 334.916 27.7555 335.152 27.7476L346.306 27.3738C346.544 27.3659 346.729 27.5554 346.719 27.7972C346.71 28.0391 346.508 28.2416 346.27 28.2494Z" fill="white"/>
    <path d="M351.275 23.054L348.736 23.1444L348.79 21.8256L351.329 21.7337C351.656 21.7218 351.911 21.9809 351.897 22.3121L351.892 22.433C351.879 22.7643 351.602 23.0424 351.275 23.054Z" fill="white"/>
    <path d="M305.42 37.2484L247.911 38.9242L248.139 33.3376L305.656 31.4919L305.42 37.2484Z" fill="#D2F2F4"/>
    <path d="M216.173 75.3946C214.169 75.3946 212.292 74.5956 210.88 73.1396C209.305 71.5155 208.459 69.199 208.558 66.7839C208.752 62.0193 212.499 58.0743 216.91 57.99L339.954 55.6351C342.362 55.5892 344.607 56.4954 346.262 58.1878C347.958 59.9213 348.835 62.2596 348.732 64.7725C348.524 69.8785 344.27 74.0746 339.251 74.1263L216.251 75.3942C216.225 75.3944 216.198 75.3946 216.173 75.3946ZM340.129 56.579C340.077 56.579 340.025 56.5795 339.972 56.5805L216.928 58.9354C213.008 59.0104 209.677 62.5486 209.502 66.8225C209.414 68.9798 210.163 71.0424 211.558 72.4811C212.806 73.7682 214.473 74.4703 216.241 74.4486L339.241 73.1807C343.765 73.1342 347.599 69.3449 347.788 64.7339C347.88 62.4842 347.098 60.3943 345.587 58.8491C344.151 57.3816 342.218 56.579 340.129 56.579Z" fill="#1FBFC7"/>
    <path d="M339.246 73.6536L329.288 73.7562L330.001 56.2985L339.963 56.1078C344.735 56.0165 348.459 59.8869 348.26 64.7532C348.061 69.6195 344.016 73.6043 339.246 73.6536Z" fill="#1FBFC7"/>
    <path d="M266.304 150.862L210.085 149.194C208.551 149.149 207.365 147.759 207.434 146.09L209.601 93.0685C209.67 91.3993 210.968 90.0437 212.504 90.0403L268.796 89.9168C270.429 89.9131 271.697 91.3086 271.627 93.0334L269.387 147.827C269.316 149.552 267.935 150.911 266.304 150.862Z" fill="#94F3F7"/>
    <path d="M282.071 90.383L281.775 97.6285L348.813 97.7505L349.119 90.2532L282.071 90.383Z" fill="#1FBFC7"/>
    <path d="M281.619 101.448L281.322 108.693L342.484 109.156L342.79 101.68L281.619 101.448Z" fill="#1FBFC7"/>
    <path d="M281.166 112.513L280.87 119.758L329.247 120.402L329.551 112.974L281.166 112.513Z" fill="#1FBFC7"/>
    <path d="M343.835 153.163L282.698 151.349C281.295 151.307 280.208 150.082 280.268 148.613L280.835 134.735C280.896 133.266 282.08 132.097 283.484 132.125L344.646 133.329C346.141 133.359 347.306 134.615 347.243 136.135L346.656 150.491C346.594 152.011 345.33 153.207 343.835 153.163Z" fill="#1FBFC7"/>
    <path d="M287.192 143.803L286.702 145.153L285.499 145.121L287.655 139.271L289.189 139.307L290.959 145.265L289.67 145.231L289.257 143.856L287.192 143.803ZM289.037 142.803C288.687 141.542 288.465 140.739 288.347 140.205L288.339 140.204C288.176 140.784 287.859 141.702 287.496 142.765L289.037 142.803Z" fill="white"/>
    <path d="M291.925 139.371L294.182 139.423C295.833 139.462 296.878 140.623 296.806 142.379C296.736 144.108 295.624 145.388 293.882 145.342L291.683 145.284L291.925 139.371ZM292.952 144.286L293.875 144.31C294.964 144.338 295.486 143.499 295.533 142.347C295.573 141.375 295.155 140.479 294.041 140.452L293.11 140.43L292.952 144.286Z" fill="white"/>
    <path d="M298 139.512L300.272 139.565C301.933 139.604 302.985 140.769 302.913 142.53C302.842 144.265 301.723 145.549 299.971 145.503L297.758 145.444L298 139.512ZM299.034 144.443L299.963 144.467C301.059 144.496 301.584 143.654 301.631 142.498C301.671 141.524 301.251 140.624 300.13 140.597L299.192 140.575L299.034 144.443Z" fill="white"/>
    <path d="M307.242 140.785L305.488 140.743L305.531 139.688L310.282 139.799L310.239 140.856L308.488 140.815L308.287 145.723L307.041 145.69L307.242 140.785Z" fill="white"/>
    <path d="M316.09 142.91C316.022 144.578 314.994 145.987 313.108 145.937C311.285 145.888 310.392 144.503 310.462 142.787C310.533 141.054 311.637 139.744 313.435 139.786C315.136 139.826 316.165 141.076 316.09 142.91ZM311.756 142.793C311.708 143.964 312.168 144.861 313.193 144.888C314.312 144.917 314.748 143.963 314.791 142.895C314.838 141.757 314.419 140.861 313.342 140.835C312.291 140.81 311.803 141.631 311.756 142.793Z" fill="white"/>
    <path d="M324.149 144.281C323.873 145.4 323.015 146.199 321.546 146.16C319.69 146.111 318.874 144.739 318.943 143.033C319.011 141.388 319.976 139.939 321.858 139.982C323.421 140.019 324.139 140.97 324.243 141.986L322.976 141.955C322.868 141.481 322.572 141.011 321.774 140.992C320.732 140.967 320.294 141.925 320.249 143.022C320.208 144.032 320.511 145.112 321.639 145.141C322.471 145.163 322.749 144.603 322.874 144.248L324.149 144.281Z" fill="white"/>
    <path d="M326.207 144.805L325.698 146.182L324.447 146.149L326.686 140.182L328.282 140.22L330.13 146.299L328.787 146.264L328.357 144.861L326.207 144.805ZM328.127 143.787C327.761 142.5 327.53 141.681 327.407 141.135L327.398 141.135C327.229 141.726 326.9 142.663 326.523 143.746L328.127 143.787Z" fill="white"/>
    <path d="M332.233 143.934L332.134 146.352L330.883 146.319L331.13 140.286L333.728 140.347C335.017 140.377 335.685 141.113 335.646 142.052C335.613 142.859 335.165 143.288 334.728 143.461C335.015 143.582 335.45 143.901 335.406 144.989L335.393 145.287C335.377 145.691 335.358 146.156 335.432 146.439L334.211 146.407C334.119 146.141 334.121 145.685 334.147 145.044L334.15 144.957C334.177 144.299 334.027 143.979 333.074 143.955L332.233 143.934ZM332.276 142.891L333.348 142.918C334.044 142.935 334.33 142.67 334.35 142.17C334.37 141.679 334.064 141.39 333.437 141.375L332.339 141.349L332.276 142.891Z" fill="white"/>
    <path d="M338.065 141.521L336.255 141.478L336.299 140.407L341.202 140.521L341.158 141.595L339.351 141.552L339.147 146.537L337.861 146.503L338.065 141.521Z" fill="white"/>
    <path d="M262.971 232.378L206.85 228.313C205.319 228.202 204.135 226.759 204.203 225.09L206.371 172.069C206.439 170.4 207.736 169.097 209.269 169.159L265.463 171.432C267.093 171.498 268.359 172.95 268.289 174.675L266.048 229.468C265.978 231.193 264.599 232.496 262.971 232.378Z" fill="#94F3F7"/>
    <path d="M278.715 172.464L278.419 179.71L345.34 182.686L345.647 175.189L278.715 172.464Z" fill="#1FBFC7"/>
    <path d="M278.263 183.529L277.967 190.775L339.022 193.842L339.327 186.367L278.263 183.529Z" fill="#1FBFC7"/>
    <path d="M277.81 194.594L277.514 201.839L325.807 204.544L326.11 197.117L277.81 194.594Z" fill="#1FBFC7"/>
    <path d="M340.367 237.983L279.336 233.563C277.936 233.462 276.851 232.188 276.911 230.719L277.478 216.841C277.539 215.372 278.721 214.251 280.122 214.339L341.178 218.15C342.671 218.243 343.833 219.551 343.771 221.071L343.184 235.427C343.122 236.947 341.859 238.091 340.367 237.983Z" fill="#1FBFC7"/>
    <path d="M283.823 226.195L283.334 227.527L282.134 227.444L284.286 221.675L285.817 221.776L287.584 227.821L286.297 227.732L285.885 226.336L283.823 226.195ZM285.666 225.273C285.316 223.994 285.094 223.181 284.977 222.64L284.969 222.639C284.806 223.213 284.49 224.119 284.127 225.168L285.666 225.273Z" fill="white"/>
    <path d="M288.548 221.957L290.802 222.106C292.45 222.215 293.493 223.423 293.421 225.178C293.35 226.907 292.241 228.142 290.502 228.022L288.307 227.87L288.548 221.957ZM289.573 226.924L290.495 226.988C291.582 227.062 292.103 226.244 292.15 225.092C292.19 224.12 291.773 223.205 290.66 223.13L289.731 223.068L289.573 226.924Z" fill="white"/>
    <path d="M294.613 222.358L296.88 222.507C298.539 222.617 299.588 223.829 299.516 225.59C299.445 227.325 298.329 228.563 296.58 228.442L294.37 228.29L294.613 222.358ZM295.645 227.341L296.572 227.405C297.666 227.48 298.191 226.659 298.238 225.503C298.278 224.529 297.858 223.61 296.739 223.535L295.803 223.473L295.645 227.341Z" fill="white"/>
    <path d="M303.838 224.026L302.087 223.909L302.131 222.854L306.874 223.168L306.83 224.225L305.083 224.108L304.882 229.017L303.638 228.931L303.838 224.026Z" fill="white"/>
    <path d="M312.671 226.531C312.603 228.2 311.577 229.567 309.694 229.436C307.874 229.31 306.983 227.884 307.053 226.169C307.124 224.436 308.226 223.17 310.021 223.289C311.719 223.401 312.746 224.697 312.671 226.531ZM308.344 226.23C308.297 227.401 308.755 228.319 309.779 228.389C310.897 228.466 311.331 227.529 311.375 226.461C311.421 225.323 311.004 224.407 309.928 224.336C308.879 224.266 308.392 225.068 308.344 226.23Z" fill="white"/>
    <path d="M320.716 228.247C320.44 229.357 319.584 230.121 318.118 230.019C316.265 229.891 315.45 228.482 315.52 226.776C315.587 225.131 316.551 223.72 318.43 223.844C319.989 223.947 320.706 224.931 320.81 225.952L319.545 225.868C319.437 225.388 319.143 224.905 318.346 224.852C317.305 224.783 316.868 225.723 316.823 226.821C316.781 227.831 317.084 228.926 318.21 229.003C319.041 229.06 319.318 228.511 319.443 228.161L320.716 228.247Z" fill="white"/>
    <path d="M322.77 228.861L322.263 230.218L321.013 230.132L323.249 224.25L324.842 224.355L326.686 230.524L325.346 230.432L324.917 229.008L322.77 228.861ZM324.687 227.922C324.322 226.617 324.091 225.787 323.968 225.235L323.96 225.235C323.791 225.819 323.463 226.744 323.086 227.813L324.687 227.922Z" fill="white"/>
    <path d="M328.786 228.244L328.687 230.663L327.438 230.576L327.685 224.543L330.279 224.715C331.566 224.8 332.232 225.565 332.194 226.504C332.161 227.312 331.713 227.722 331.277 227.877C331.563 228.011 331.998 228.348 331.953 229.436L331.941 229.735C331.924 230.138 331.906 230.604 331.98 230.89L330.761 230.806C330.669 230.536 330.67 230.079 330.696 229.438L330.7 229.351C330.727 228.693 330.577 228.366 329.626 228.301L328.786 228.244ZM328.829 227.202L329.899 227.274C330.593 227.321 330.879 227.067 330.9 226.567C330.92 226.076 330.614 225.774 329.988 225.733L328.892 225.66L328.829 227.202Z" fill="white"/>
    <path d="M334.608 226.076L332.801 225.955L332.845 224.884L337.739 225.208L337.695 226.281L335.892 226.161L335.688 231.147L334.404 231.058L334.608 226.076Z" fill="white"/>
    <path d="M259.562 315.752L203.542 309.236C202.013 309.058 200.832 307.561 200.9 305.892L203.068 252.871C203.136 251.202 204.43 249.953 205.96 250.082L262.054 254.806C263.681 254.943 264.945 256.453 264.875 258.178L262.634 312.971C262.564 314.696 261.187 315.941 259.562 315.752Z" fill="#94F3F7"/>
    <path d="M275.283 256.417L274.986 263.663L341.788 269.558L342.095 262.061L275.283 256.417Z" fill="#1FBFC7"/>
    <path d="M274.83 267.482L274.534 274.727L335.48 280.459L335.786 272.984L274.83 267.482Z" fill="#1FBFC7"/>
    <path d="M274.378 278.547L274.082 285.792L322.288 290.604L322.592 283.177L274.378 278.547Z" fill="#1FBFC7"/>
    <path d="M336.82 324.737L275.898 317.652C274.5 317.489 273.417 316.166 273.477 314.697L274.045 300.819C274.105 299.349 275.286 298.279 276.684 298.427L337.631 304.904C339.121 305.062 340.281 306.423 340.219 307.943L339.632 322.299C339.57 323.819 338.31 324.911 336.82 324.737Z" fill="#1FBFC7"/>
    <path d="M280.377 310.466L279.889 311.778L278.691 311.643L280.84 305.958L282.368 306.126L284.132 312.258L282.846 312.113L282.436 310.697L280.377 310.466ZM282.217 309.622C281.867 308.326 281.647 307.501 281.53 306.955L281.522 306.954C281.359 307.521 281.043 308.415 280.681 309.45L282.217 309.622Z" fill="white"/>
    <path d="M285.095 306.426L287.344 306.673C288.989 306.854 290.03 308.109 289.958 309.865C289.888 311.594 288.78 312.783 287.044 312.587L284.853 312.339L285.095 306.426ZM286.117 311.447L287.037 311.55C288.123 311.672 288.643 310.876 288.69 309.723C288.73 308.752 288.313 307.816 287.203 307.693L286.275 307.591L286.117 311.447Z" fill="white"/>
    <path d="M291.149 307.091L293.412 307.34C295.067 307.522 296.115 308.782 296.043 310.543C295.972 312.278 294.858 313.47 293.111 313.273L290.906 313.023L291.149 307.091ZM292.178 312.129L293.104 312.233C294.196 312.356 294.719 311.557 294.767 310.401C294.807 309.426 294.387 308.487 293.27 308.364L292.336 308.261L292.178 312.129Z" fill="white"/>
    <path d="M300.357 309.164L298.61 308.971L298.653 307.916L303.387 308.437L303.344 309.494L301.599 309.301L301.399 314.209L300.157 314.069L300.357 309.164Z" fill="white"/>
    <path d="M309.175 312.059C309.106 313.727 308.082 315.052 306.202 314.84C304.386 314.634 303.496 313.167 303.566 311.451C303.637 309.718 304.737 308.498 306.529 308.695C308.224 308.882 309.25 310.225 309.175 312.059ZM304.855 311.568C304.807 312.739 305.265 313.679 306.287 313.794C307.403 313.92 307.837 313 307.88 311.932C307.927 310.794 307.51 309.858 306.436 309.74C305.389 309.624 304.903 310.407 304.855 311.568Z" fill="white"/>
    <path d="M317.204 314.128C316.929 315.228 316.074 315.956 314.611 315.79C312.761 315.581 311.948 314.134 312.018 312.428C312.085 310.783 313.048 309.412 314.923 309.618C316.48 309.789 317.195 310.805 317.298 311.833L316.036 311.693C315.928 311.208 315.634 310.712 314.839 310.624C313.8 310.509 313.363 311.432 313.318 312.529C313.277 313.539 313.579 314.65 314.703 314.776C315.532 314.869 315.809 314.331 315.934 313.986L317.204 314.128Z" fill="white"/>
    <path d="M319.255 314.832L318.748 316.17L317.501 316.029L319.733 310.234L321.323 310.409L323.164 316.669L321.826 316.518L321.398 315.072L319.255 314.832ZM321.169 313.975C320.804 312.653 320.574 311.81 320.451 311.252L320.443 311.252C320.274 311.83 319.946 312.742 319.57 313.797L321.169 313.975Z" fill="white"/>
    <path d="M325.26 314.477L325.161 316.895L323.915 316.754L324.162 310.721L326.751 311.006C328.035 311.147 328.7 311.943 328.662 312.882C328.629 313.689 328.182 314.08 327.746 314.217C328.033 314.363 328.466 314.72 328.421 315.809L328.409 316.107C328.393 316.511 328.374 316.976 328.448 317.266L327.231 317.129C327.139 316.854 327.141 316.396 327.167 315.756L327.171 315.668C327.198 315.01 327.048 314.676 326.098 314.57L325.26 314.477ZM325.303 313.434L326.372 313.553C327.065 313.63 327.35 313.389 327.37 312.889C327.39 312.398 327.085 312.082 326.46 312.013L325.366 311.892L325.303 313.434Z" fill="white"/>
    <path d="M331.072 312.558L329.269 312.358L329.313 311.287L334.198 311.824L334.154 312.898L332.354 312.699L332.15 317.685L330.868 317.54L331.072 312.558Z" fill="white"/>
    <path d="M173.655 227.267C173.62 227.267 173.585 227.266 173.55 227.263L91.59 221.833C91.1282 221.802 90.7029 221.57 90.4267 221.199C90.1504 220.827 90.0509 220.353 90.1544 219.902C93.6496 204.661 98.0803 194.867 103.7 189.961C104.012 189.689 104.417 189.55 104.831 189.574L187.123 194.364C187.715 194.398 188.237 194.761 188.477 195.303C188.716 195.846 188.632 196.476 188.259 196.937C181.371 205.436 176.982 215.195 175.213 225.943C175.087 226.711 174.423 227.267 173.655 227.267ZM93.66 218.802L172.343 224.015C174.161 214.267 178.056 205.315 183.947 197.345L105.31 192.769C100.699 197.131 96.7843 205.879 93.66 218.802Z" fill="#E6E6E6"/>
    <path d="M183.76 193.974C183.49 193.186 182.982 192.38 182.206 192.301L107.775 187.674C104.637 188.24 104.636 194.526 107.351 194.7L181.781 199.328C182.674 199.145 183.256 198.474 183.612 197.422C182.206 197.368 181.837 194.002 183.76 193.974Z" fill="#1F81C7"/>
    <path d="M92.8701 384.917C89.772 384.917 87.2372 382.381 87.2372 379.282V369.222C87.2372 366.123 89.772 363.588 92.8701 363.588C95.9682 363.588 98.503 366.123 98.503 369.222V379.282C98.503 382.381 95.9682 384.917 92.8701 384.917Z" fill="#5B5B5B"/>
    <path d="M87.2369 369.223V382.474L88.1283 381.846V368.144L87.2369 369.223Z" fill="#B2B2B2"/>
    <path d="M91.768 370.041C91.768 370.041 97.265 368.745 99.8186 373.799C102.372 378.853 94.7901 387.463 92.9146 387.802C91.0392 388.141 87.4884 387.729 85.8323 384.43C84.1761 381.132 87.5368 371.844 91.768 370.041Z" fill="#4D4D4D"/>
    <path d="M96.2518 380.23C97.9 375.803 96.8504 371.325 93.9076 370.229C90.9647 369.133 87.243 371.833 85.5948 376.26C83.9466 380.686 84.9961 385.164 87.939 386.26C90.8818 387.356 94.6036 384.656 96.2518 380.23Z" fill="#4D4D4D"/>
    <path d="M99.7798 381.545C101.428 377.118 100.378 372.641 97.4356 371.544C94.4927 370.448 90.7709 373.148 89.1227 377.575C87.4745 382.001 88.5241 386.479 91.467 387.575C94.4098 388.671 98.1316 385.972 99.7798 381.545Z" fill="#4D4D4D"/>
    <path d="M98.901 381.217C100.277 377.521 99.4009 373.782 96.9434 372.866C94.4858 371.951 91.3779 374.205 90.0015 377.902C88.6252 381.599 89.5016 385.338 91.9592 386.253C94.4167 387.169 97.5247 384.914 98.901 381.217Z" fill="#5B5B5B"/>
    <path d="M85.0031 368.89H84.9844V368.705C84.9844 368.768 84.9912 368.829 85.0031 368.89Z" fill="#5B5B5B"/>
    <path d="M92.87 363.588C89.7719 363.588 87.2369 366.083 87.2369 369.132L88.1283 370.87C88.1283 367.756 92.7903 367.763 92.7903 370.87L92.87 381.793C92.87 384.876 98.2358 382.704 98.5029 379.373V369.132C98.5029 366.083 95.9681 363.588 92.87 363.588Z" fill="#B2B2B2"/>
    <path d="M19.8485 370.684C16.9937 370.684 14.658 368.347 14.658 365.492V356.222C14.658 353.366 16.9937 351.03 19.8485 351.03C22.7032 351.03 25.039 353.366 25.039 356.222V365.492C25.039 368.347 22.7034 370.684 19.8485 370.684Z" fill="#5C5C5C"/>
    <path d="M14.658 356.222V368.432L15.4793 367.854V355.228L14.658 356.222Z" fill="#B2B2B2"/>
    <path d="M18.8331 356.976C18.8331 356.976 23.8984 355.781 26.2513 360.439C28.6042 365.096 21.6178 373.03 19.8897 373.342C18.1616 373.654 14.8896 373.274 13.3636 370.235C11.8375 367.196 14.9343 358.637 18.8331 356.976Z" fill="#4D4D4D"/>
    <path d="M22.9627 366.363C24.4814 362.284 23.5143 358.158 20.8026 357.148C18.0909 356.138 14.6614 358.626 13.1426 362.705C11.6239 366.784 12.591 370.91 15.3028 371.92C18.0145 372.93 21.444 370.442 22.9627 366.363Z" fill="#4D4D4D"/>
    <path d="M26.2136 367.574C27.7323 363.495 26.7652 359.369 24.0535 358.359C21.3417 357.349 17.9122 359.836 16.3935 363.916C14.8747 367.995 15.8419 372.121 18.5536 373.131C21.2654 374.141 24.6948 371.653 26.2136 367.574Z" fill="#4D4D4D"/>
    <path d="M25.4036 367.273C26.6719 363.867 25.8643 360.422 23.5997 359.578C21.3352 358.735 18.4713 360.812 17.2031 364.218C15.9349 367.625 16.7425 371.07 19.007 371.914C21.2715 372.757 24.1354 370.68 25.4036 367.273Z" fill="#5B5B5B"/>
    <path d="M12.5995 355.915H12.5823V355.745C12.5823 355.803 12.5886 355.859 12.5995 355.915Z" fill="#5B5B5B"/>
    <path d="M19.8485 351.03C16.9937 351.03 14.658 353.328 14.658 356.138L15.4792 357.74C15.4792 354.87 19.775 354.877 19.775 357.74L19.8484 367.805C19.8484 370.645 24.7927 368.644 25.0389 365.575V356.138C25.039 353.328 22.7034 351.03 19.8485 351.03Z" fill="#B2B2B2"/>
    <path d="M88.9523 338.881C86.4051 338.881 84.3209 336.797 84.3209 334.249V325.977C84.3209 323.429 86.405 321.345 88.9523 321.345C91.4995 321.345 93.5837 323.429 93.5837 325.977V334.249C93.5837 336.797 91.4995 338.881 88.9523 338.881Z" fill="#5C5C5C"/>
    <path d="M84.3209 325.977V336.873L85.0537 336.357V325.091L84.3209 325.977Z" fill="#B2B2B2"/>
    <path d="M88.0462 326.651C88.0462 326.651 92.5657 325.585 94.6653 329.74C96.7648 333.896 90.5309 340.975 88.9889 341.253C87.447 341.532 84.5276 341.193 83.1659 338.481C81.8043 335.769 84.5673 328.133 88.0462 326.651Z" fill="#4D4D4D"/>
    <path d="M91.7318 335.029C93.087 331.389 92.224 327.708 89.8044 326.806C87.3847 325.905 84.3247 328.125 82.9695 331.764C81.6144 335.404 82.4774 339.085 84.897 339.987C87.3167 340.888 90.3767 338.668 91.7318 335.029Z" fill="#4D4D4D"/>
    <path d="M94.6326 336.111C95.9877 332.472 95.1247 328.79 92.7051 327.889C90.2854 326.987 87.2254 329.207 85.8703 332.847C84.5152 336.487 85.3781 340.168 87.7977 341.069C90.2174 341.971 93.2774 339.751 94.6326 336.111Z" fill="#4D4D4D"/>
    <path d="M93.91 335.841C95.0417 332.802 94.321 329.728 92.3005 328.975C90.2799 328.222 87.7246 330.076 86.5929 333.115C85.4613 336.155 86.1819 339.229 88.2025 339.981C90.223 340.734 92.7784 338.88 93.91 335.841Z" fill="#5B5B5B"/>
    <path d="M82.4842 325.704H82.4689V325.552C82.4689 325.603 82.4744 325.654 82.4842 325.704Z" fill="#5B5B5B"/>
    <path d="M88.9523 321.345C86.4051 321.345 84.3209 323.396 84.3209 325.903L85.0537 327.332C85.0537 324.772 88.8868 324.778 88.8868 327.332L88.9523 336.313C88.9523 338.847 93.3641 337.062 93.5837 334.323V325.903C93.5837 323.396 91.4995 321.345 88.9523 321.345Z" fill="#B2B2B2"/>
    <path d="M165.635 348.876C163.088 348.876 161.004 346.791 161.004 344.243V335.972C161.004 333.424 163.088 331.339 165.635 331.339C168.183 331.339 170.267 333.424 170.267 335.972V344.243C170.267 346.791 168.183 348.876 165.635 348.876Z" fill="#5C5C5C"/>
    <path d="M161.004 335.972V346.867L161.737 346.351V335.086L161.004 335.972Z" fill="#B2B2B2"/>
    <path d="M164.729 336.645C164.729 336.645 169.249 335.579 171.348 339.734C173.448 343.89 167.214 350.969 165.672 351.248C164.13 351.527 161.211 351.187 159.849 348.475C158.487 345.764 161.251 338.127 164.729 336.645Z" fill="#4D4D4D"/>
    <path d="M168.416 345.026C169.771 341.386 168.908 337.705 166.489 336.803C164.069 335.902 161.009 338.122 159.654 341.761C158.299 345.401 159.162 349.082 161.581 349.984C164.001 350.885 167.061 348.665 168.416 345.026Z" fill="#4D4D4D"/>
    <path d="M171.317 346.108C172.672 342.469 171.809 338.787 169.39 337.886C166.97 336.985 163.91 339.204 162.555 342.844C161.2 346.484 162.063 350.165 164.482 351.066C166.902 351.968 169.962 349.748 171.317 346.108Z" fill="#4D4D4D"/>
    <path d="M170.595 345.84C171.726 342.801 171.006 339.727 168.985 338.974C166.964 338.221 164.409 340.075 163.277 343.114C162.146 346.154 162.867 349.228 164.887 349.98C166.908 350.733 169.463 348.879 170.595 345.84Z" fill="#5B5B5B"/>
    <path d="M159.167 335.698H159.152V335.546C159.152 335.598 159.157 335.648 159.167 335.698Z" fill="#5B5B5B"/>
    <path d="M165.635 331.339C163.088 331.339 161.004 333.39 161.004 335.897L161.737 337.326C161.737 334.766 165.57 334.772 165.57 337.326L164.715 346.027C164.715 348.561 170.047 347.056 170.267 344.318V335.897C170.267 333.39 168.183 331.339 165.635 331.339Z" fill="#B2B2B2"/>
    <path d="M79.6614 370.481C78.4148 370.481 77.1626 370.359 75.9183 370.113L16.8869 358.438C15.115 358.088 13.8167 356.643 13.6564 354.844C13.4959 353.044 14.5183 351.393 16.2005 350.734L84.0209 324.19C88.9315 322.268 91.7467 317.119 90.7149 311.946L87.28 294.729C87.1729 294.192 87.3307 293.637 87.7039 293.237C88.0771 292.836 88.6208 292.64 89.1627 292.71L166.505 302.6C167.209 302.69 167.783 303.208 167.945 303.899L171.406 318.679C172.903 325.296 169.502 332.096 163.323 334.862L87.4794 368.803C84.9918 369.917 82.3397 370.481 79.6614 370.481ZM91.0772 296.383L94.0494 311.281C95.4043 318.073 91.7078 324.834 85.2597 327.358L17.4394 353.901C17.0773 354.043 17.024 354.328 17.0432 354.542C17.0622 354.755 17.1649 355.026 17.5463 355.101L76.5777 366.776C79.8014 367.414 83.0912 367.041 86.0909 365.699L161.934 331.757C166.64 329.651 169.23 324.472 168.092 319.442L164.904 305.824L91.0772 296.383Z" fill="#CCCCCC"/>
    <path d="M170.006 304.942C169.976 304.942 169.947 304.94 169.918 304.936L85.5358 294.516C85.1557 294.469 84.8792 294.132 84.9075 293.75L90.402 219.609C90.4311 219.216 90.7734 218.919 91.1643 218.946L175.546 224.376C175.737 224.388 175.915 224.476 176.041 224.62C176.167 224.764 176.23 224.952 176.217 225.143L170.722 304.273C170.708 304.47 170.615 304.653 170.462 304.778C170.333 304.885 170.171 304.942 170.006 304.942ZM86.3905 293.174L169.342 303.418L174.734 225.764L91.7819 220.425L86.3905 293.174Z" fill="#E6E6E6"/>
    <path d="M89.3943 243.062L89.3239 243.922L173.718 250.841L173.788 249.982L89.3943 243.062Z" fill="#E6E6E6"/>
    <path d="M87.4438 269.223L87.3622 270.081L171.797 278.116L171.878 277.257L87.4438 269.223Z" fill="#E6E6E6"/>
    <path d="M93.988 295.041C93.9816 295.041 93.9753 295.041 93.9688 295.04C93.8423 295.03 93.7482 294.919 93.7587 294.792L99.9236 220.107C99.9341 219.98 100.045 219.887 100.172 219.896C100.298 219.907 100.392 220.018 100.382 220.144L94.2167 294.83C94.2068 294.95 94.1063 295.041 93.988 295.041Z" fill="#E6E6E6"/>
    <path d="M104.867 296.388C104.861 296.388 104.855 296.388 104.848 296.388C104.722 296.377 104.627 296.267 104.638 296.14L110.697 220.823C110.707 220.697 110.815 220.603 110.945 220.613C111.071 220.623 111.165 220.733 111.155 220.86L105.096 296.177C105.086 296.297 104.986 296.388 104.867 296.388Z" fill="#E6E6E6"/>
    <path d="M115.928 297.758C115.922 297.758 115.916 297.758 115.91 297.758C115.784 297.748 115.689 297.637 115.699 297.51L121.648 221.552C121.658 221.425 121.767 221.328 121.895 221.341C122.022 221.351 122.117 221.461 122.107 221.588L116.157 297.546C116.148 297.667 116.047 297.758 115.928 297.758Z" fill="#E6E6E6"/>
    <path d="M127.177 299.152C127.171 299.152 127.165 299.151 127.159 299.151C127.033 299.141 126.938 299.031 126.947 298.904L132.782 222.293C132.792 222.166 132.901 222.071 133.029 222.081C133.156 222.091 133.25 222.201 133.241 222.328L127.406 298.939C127.397 299.06 127.296 299.152 127.177 299.152Z" fill="#E6E6E6"/>
    <path d="M138.617 300.568C138.611 300.568 138.605 300.568 138.6 300.568C138.473 300.559 138.378 300.448 138.387 300.322L144.103 223.046C144.113 222.92 144.223 222.824 144.35 222.834C144.476 222.843 144.571 222.953 144.562 223.08L138.846 300.356C138.837 300.477 138.736 300.568 138.617 300.568Z" fill="#E6E6E6"/>
    <path d="M150.254 302.01C150.248 302.01 150.243 302.01 150.237 302.009C150.11 302 150.015 301.89 150.024 301.763L155.616 223.812C155.625 223.685 155.735 223.589 155.862 223.599C155.988 223.608 156.084 223.718 156.075 223.845L150.483 301.796C150.474 301.917 150.373 302.01 150.254 302.01Z" fill="#E6E6E6"/>
    <path d="M162.092 303.476C162.087 303.476 162.082 303.476 162.076 303.476C161.95 303.467 161.854 303.357 161.863 303.23L167.326 224.591C167.335 224.464 167.445 224.367 167.571 224.378C167.697 224.387 167.793 224.496 167.784 224.623L162.322 303.262C162.313 303.384 162.212 303.476 162.092 303.476Z" fill="#E6E6E6"/>
    <path d="M150.343 263.692L110.527 260.238C109.07 260.111 107.986 258.835 108.096 257.376L109.915 233.414L154.939 236.457L153.236 261.215C153.134 262.705 151.83 263.821 150.343 263.692Z" fill="#1F81C7"/>
    <path d="M15.3534 319.265C15.2377 319.265 15.138 319.178 15.1252 319.06L7.70892 251.407C7.69503 251.281 7.78617 251.167 7.91224 251.153C8.0379 251.14 8.15197 251.23 8.16572 251.357L15.582 319.01C15.5959 319.136 15.5048 319.25 15.3786 319.264C15.3703 319.265 15.3619 319.265 15.3534 319.265Z" fill="#E6E6E6"/>
    <path d="M21.7521 316.968C21.6347 316.968 21.5345 316.878 21.5236 316.759L15.24 248.531C15.2283 248.404 15.3213 248.292 15.4478 248.281C15.572 248.269 15.686 248.362 15.6976 248.489L21.9812 316.717C21.9928 316.843 21.8998 316.955 21.7734 316.967C21.7663 316.967 21.7593 316.968 21.7521 316.968Z" fill="#E6E6E6"/>
    <path d="M28.1766 314.661C28.0575 314.661 27.9567 314.569 27.9477 314.448L22.8069 245.641C22.7975 245.514 22.8924 245.404 23.019 245.395C23.1453 245.386 23.2558 245.48 23.2653 245.607L28.4061 314.414C28.4156 314.54 28.3206 314.65 28.194 314.66C28.1881 314.661 28.1824 314.661 28.1766 314.661Z" fill="#E6E6E6"/>
    <path d="M34.6272 312.344C34.5063 312.344 34.405 312.25 34.398 312.128L30.4102 242.738C30.4029 242.611 30.4997 242.503 30.6264 242.495C30.7508 242.492 30.8617 242.585 30.869 242.711L34.8569 312.101C34.8641 312.228 34.7673 312.337 34.6406 312.344C34.6361 312.344 34.6317 312.344 34.6272 312.344Z" fill="#E6E6E6"/>
    <path d="M41.104 310.019C40.9813 310.019 40.8795 309.922 40.8745 309.798L38.0501 239.82C38.045 239.694 38.1437 239.587 38.2706 239.581C38.3988 239.575 38.5044 239.675 38.5095 239.802L41.334 309.78C41.3392 309.906 41.2405 310.014 41.1136 310.019C41.1102 310.019 41.1071 310.019 41.104 310.019Z" fill="#E6E6E6"/>
    <path d="M47.6073 307.684C47.4829 307.684 47.3805 307.584 47.3777 307.459L45.727 236.889C45.724 236.762 45.8245 236.657 45.9513 236.654C46.0788 236.653 46.1835 236.751 46.1865 236.878L47.8372 307.448C47.8402 307.575 47.7397 307.681 47.6129 307.684C47.611 307.684 47.6091 307.684 47.6073 307.684Z" fill="#E6E6E6"/>
    <path d="M54.1371 305.339C54.0107 305.339 53.9081 305.237 53.9073 305.111L53.4407 233.944C53.4399 233.817 53.5421 233.713 53.6689 233.713C53.6695 233.713 53.67 233.713 53.6704 233.713C53.7966 233.713 53.8994 233.814 53.9002 233.941L54.3668 305.108C54.3676 305.235 54.2654 305.338 54.1386 305.339C54.138 305.339 54.1375 305.339 54.1371 305.339Z" fill="#E6E6E6"/>
    <path d="M60.6937 302.985C60.6928 302.985 60.692 302.985 60.6912 302.985C60.5643 302.983 60.4624 302.879 60.4638 302.753L61.1918 230.984C61.1932 230.858 61.2958 230.757 61.4216 230.757C61.4224 230.757 61.4232 230.757 61.424 230.757C61.551 230.758 61.6528 230.862 61.6515 230.989L60.9234 302.757C60.9221 302.883 60.8194 302.985 60.6937 302.985Z" fill="#E6E6E6"/>
    <path d="M67.277 300.621C67.2748 300.621 67.2728 300.621 67.2706 300.621C67.1438 300.617 67.0436 300.512 67.0471 300.385L68.9807 228.01C68.9841 227.884 69.091 227.777 69.2165 227.787C69.3434 227.79 69.4436 227.896 69.4402 228.023L67.5066 300.397C67.5032 300.522 67.401 300.621 67.277 300.621Z" fill="#E6E6E6"/>
    <path d="M73.8872 298.247C73.8838 298.247 73.8806 298.247 73.8771 298.247C73.7503 298.242 73.6519 298.135 73.6574 298.008L76.8073 225.022C76.8127 224.896 76.918 224.796 77.0468 224.803C77.1735 224.808 77.272 224.915 77.2664 225.042L74.1167 298.027C74.1113 298.151 74.0096 298.247 73.8872 298.247Z" fill="#E6E6E6"/>
    <path d="M80.5247 295.864C80.5201 295.864 80.5155 295.864 80.5108 295.863C80.3841 295.856 80.2875 295.747 80.295 295.62L84.6721 222.019C84.6796 221.893 84.7911 221.796 84.9152 221.804C85.0419 221.811 85.1384 221.92 85.1309 222.047L80.7538 295.648C80.7466 295.77 80.6454 295.864 80.5247 295.864Z" fill="#E6E6E6"/>
    <path d="M8.92256 322.063C8.7911 322.063 8.66045 322.027 8.54571 321.956C8.35978 321.841 8.23615 321.648 8.20958 321.432L0.00533475 254.221C-0.0347097 253.893 0.153919 253.581 0.462409 253.463L90.8623 218.991C91.0921 218.903 91.3503 218.939 91.5473 219.086C91.7442 219.233 91.8526 219.47 91.8344 219.715L86.34 293.856C86.319 294.139 86.1334 294.383 85.8665 294.479L9.16526 322.021C9.08652 322.049 9.0044 322.063 8.92256 322.063ZM1.49938 254.605L9.52646 320.365L84.9421 293.285L90.3185 220.736L1.49938 254.605Z" fill="#E6E6E6"/>
    <path d="M89.222 242.931L3.1709 275.027L3.47203 275.835L89.5231 243.738L89.222 242.931Z" fill="#E6E6E6"/>
    <path d="M87.273 269.251L6.21619 299.211L6.5149 300.019L87.5717 270.06L87.273 269.251Z" fill="#E6E6E6"/>
    <path d="M91.3276 332.681C91.3142 332.681 91.3006 332.68 91.2868 332.678L15.5544 319.175C15.4294 319.153 15.3462 319.033 15.3685 318.909C15.3906 318.783 15.5095 318.7 15.635 318.722L91.3675 332.225C91.4925 332.248 91.5757 332.367 91.5534 332.492C91.5337 332.603 91.4368 332.681 91.3276 332.681Z" fill="#E6E6E6"/>
    <path d="M98.7553 330.017C98.7422 330.017 98.7291 330.015 98.7159 330.013L22.2417 316.782C22.1166 316.76 22.0327 316.641 22.0544 316.516C22.076 316.391 22.1951 316.308 22.3201 316.329L98.7942 329.56C98.9194 329.582 99.0032 329.701 98.9815 329.826C98.9621 329.938 98.865 330.017 98.7553 330.017Z" fill="#E6E6E6"/>
    <path d="M106.181 327.352C106.168 327.352 106.155 327.351 106.142 327.349L28.927 314.389C28.8017 314.368 28.7173 314.25 28.7383 314.125C28.7592 314 28.8776 313.915 29.003 313.936L106.218 326.896C106.344 326.917 106.428 327.035 106.407 327.161C106.388 327.273 106.291 327.352 106.181 327.352Z" fill="#E6E6E6"/>
    <path d="M113.604 324.689C113.592 324.689 113.579 324.688 113.567 324.686L35.6105 311.998C35.4852 311.978 35.4001 311.86 35.4205 311.734C35.441 311.609 35.5583 311.523 35.6842 311.544L113.64 324.232C113.766 324.253 113.851 324.371 113.83 324.496C113.812 324.609 113.715 324.689 113.604 324.689Z" fill="#E6E6E6"/>
    <path d="M121.025 322.027C121.013 322.027 121.001 322.026 120.989 322.024L42.2922 309.607C42.1668 309.587 42.0812 309.469 42.101 309.344C42.1208 309.218 42.2387 309.133 42.3638 309.153L121.06 321.57C121.186 321.59 121.271 321.707 121.252 321.833C121.234 321.946 121.136 322.027 121.025 322.027Z" fill="#E6E6E6"/>
    <path d="M128.444 319.365C128.432 319.365 128.42 319.364 128.409 319.362L48.972 307.216C48.8466 307.197 48.7603 307.08 48.7795 306.954C48.7987 306.829 48.9163 306.742 49.0414 306.762L128.478 318.908C128.603 318.927 128.69 319.045 128.67 319.17C128.653 319.284 128.555 319.365 128.444 319.365Z" fill="#E6E6E6"/>
    <path d="M135.86 316.704C135.849 316.704 135.838 316.703 135.826 316.702L55.6499 304.826C55.5243 304.808 55.4376 304.691 55.4562 304.565C55.4749 304.44 55.5913 304.353 55.7173 304.371L135.893 316.247C136.019 316.265 136.106 316.382 136.087 316.508C136.07 316.622 135.972 316.704 135.86 316.704Z" fill="#E6E6E6"/>
    <path d="M143.274 314.044C143.263 314.044 143.252 314.043 143.241 314.042L62.326 302.437C62.2003 302.419 62.1131 302.303 62.1312 302.177C62.1492 302.051 62.2662 301.965 62.3912 301.982L143.307 313.587C143.432 313.605 143.519 313.721 143.501 313.847C143.485 313.961 143.387 314.044 143.274 314.044Z" fill="#E6E6E6"/>
    <path d="M150.686 311.385C150.676 311.385 150.665 311.384 150.655 311.383L69.0005 300.049C68.8749 300.031 68.7869 299.915 68.8045 299.789C68.822 299.663 68.9385 299.577 69.0636 299.593L150.718 310.927C150.843 310.945 150.931 311.061 150.914 311.187C150.898 311.302 150.799 311.385 150.686 311.385Z" fill="#E6E6E6"/>
    <path d="M158.096 308.726C158.086 308.726 158.076 308.726 158.065 308.724L75.673 297.661C75.5472 297.644 75.4588 297.528 75.4757 297.402C75.4925 297.276 75.6085 297.188 75.734 297.205L158.126 308.269C158.252 308.286 158.34 308.401 158.324 308.527C158.308 308.642 158.209 308.726 158.096 308.726Z" fill="#E6E6E6"/>
    <path d="M165.504 306.069C165.494 306.069 165.484 306.068 165.474 306.067L82.3435 295.273C82.2175 295.257 82.1288 295.142 82.1451 295.016C82.1614 294.89 82.2763 294.8 82.4027 294.817L165.533 305.611C165.659 305.627 165.747 305.742 165.731 305.868C165.716 305.984 165.617 306.069 165.504 306.069Z" fill="#E6E6E6"/>
    <path d="M110.84 296.508L32.1251 324.899L32.4175 325.71L111.132 297.319L110.84 296.508Z" fill="#E6E6E6"/>
    <path d="M138.777 299.981L59.1824 329.527L59.4822 330.335L139.077 300.789L138.777 299.981Z" fill="#E6E6E6"/>
    <path d="M85.7769 335.449C85.7205 335.449 85.664 335.444 85.6081 335.434L8.75385 322.336C8.30338 322.259 7.96118 321.888 7.92113 321.433C7.88109 320.977 8.15291 320.552 8.58301 320.398L85.2842 292.856C85.4323 292.803 85.5907 292.785 85.7471 292.805L170.129 303.225C170.591 303.282 170.954 303.649 171.005 304.112C171.057 304.575 170.784 305.013 170.345 305.17L86.1165 335.39C86.007 335.429 85.8922 335.449 85.7769 335.449ZM12.8675 320.997L85.6857 333.407L165.689 304.704L85.7383 294.831L12.8675 320.997Z" fill="#E6E6E6"/>
    <path d="M67.4304 312.239L27.9668 303.916V258.483L67.4304 265.627V312.239Z" fill="#DEB275"/>
    <path d="M27.9668 258.483L44.3343 253.173L56.4769 249.836L94.0521 256.244L67.4304 265.627L27.9668 258.483Z" fill="#FFCD8C"/>
    <path d="M67.4303 312.239L93.4829 301.376L94.052 256.244L67.4303 265.627V312.239Z" fill="#DEB275"/>
    <path d="M83.166 260.34C83.1617 260.34 83.1571 260.34 83.1526 260.339L44.3211 253.245C44.2811 253.238 44.2545 253.199 44.2618 253.159C44.2692 253.119 44.3075 253.092 44.3477 253.1L83.1792 260.194C83.2192 260.201 83.2458 260.239 83.2385 260.279C83.232 260.315 83.2009 260.34 83.166 260.34Z" fill="#B38358"/>
    <path d="M67.6367 265.804C67.6062 265.804 67.5778 265.784 67.5671 265.754C67.5535 265.716 67.5737 265.674 67.6121 265.66L93.8991 256.412C93.9376 256.398 93.9796 256.419 93.9932 256.457C94.0067 256.495 93.9866 256.538 93.9482 256.551L67.6614 265.799C67.653 265.802 67.6448 265.804 67.6367 265.804Z" fill="#B38358"/>
    <path d="M42.3409 253.849L80.7728 261.069V271.27L84.7411 269.404L85.0205 259.622L46.962 252.496L42.3409 253.849Z" fill="white"/>
    <path d="M123.405 313.479L83.9412 305.156V259.723L123.405 266.867V313.479Z" fill="#DEB275"/>
    <path d="M83.9412 259.723L100.309 254.413L112.451 251.076L150.026 257.485L123.405 266.867L83.9412 259.723Z" fill="#FFCD8C"/>
    <path d="M123.405 313.479L149.457 302.616L150.026 257.485L123.405 266.867V313.479Z" fill="#E8BB7F"/>
    <path d="M139.14 261.58C139.136 261.58 139.131 261.58 139.127 261.579L100.296 254.485C100.255 254.478 100.229 254.44 100.236 254.4C100.244 254.359 100.282 254.333 100.322 254.34L139.154 261.434C139.194 261.441 139.22 261.479 139.213 261.519C139.206 261.555 139.175 261.58 139.14 261.58Z" fill="#B38358"/>
    <path d="M123.611 267.044C123.581 267.044 123.552 267.025 123.541 266.994C123.528 266.956 123.548 266.914 123.587 266.9L149.873 257.652C149.912 257.639 149.954 257.659 149.967 257.697C149.981 257.736 149.961 257.778 149.922 257.791L123.636 267.039C123.627 267.042 123.619 267.044 123.611 267.044Z" fill="#B38358"/>
    <path d="M98.3153 255.09L136.747 262.309V272.51L140.715 270.644L140.995 260.862L102.936 253.736L98.3153 255.09Z" fill="white"/>
    <path opacity="0.2" d="M114.176 265.197L136.645 259.484L91.4856 257.96V264.001L83.9412 262.346V305.156L110.543 309.999L114.176 265.197Z" fill="black"/>
    <path d="M83.9213 325.526L44.4576 317.203V271.77L83.9213 278.914V325.526Z" fill="#E8BB7F"/>
    <path d="M44.4576 271.77L60.8253 266.459L72.9678 263.123L110.543 269.531L83.9213 278.914L44.4576 271.77Z" fill="#FFCD8C"/>
    <path d="M83.9214 325.526L109.974 314.663L110.543 269.531L83.9214 278.914V325.526Z" fill="#DEB275"/>
    <path d="M99.6568 273.627C99.6525 273.627 99.6479 273.627 99.6435 273.626L60.812 266.532C60.7719 266.525 60.7454 266.486 60.7527 266.446C60.7601 266.406 60.7981 266.38 60.8385 266.387L99.67 273.48C99.7101 273.488 99.7366 273.526 99.7293 273.566C99.7229 273.602 99.6917 273.627 99.6568 273.627Z" fill="#B38358"/>
    <path d="M84.1275 279.09C84.097 279.09 84.0685 279.071 84.0579 279.041C84.0444 279.002 84.0646 278.96 84.1029 278.947L110.39 269.699C110.428 269.685 110.47 269.705 110.484 269.744C110.497 269.782 110.477 269.824 110.439 269.838L84.152 279.086C84.1438 279.089 84.1357 279.09 84.1275 279.09Z" fill="#B38358"/>
    <path d="M58.8318 267.136L97.2636 274.356V284.557L101.232 282.69L101.511 272.909L63.4528 265.783L58.8318 267.136Z" fill="white"/>
    <path opacity="0.2" d="M44.4576 280.159H70.008L73.4526 277.019L96.0702 267.293L72.9678 263.123L44.4576 271.77V280.159Z" fill="black"/>
    <path d="M104.359 266.294L136.645 259.484V222.315L104.359 228.159V266.294Z" fill="#E8BB7F"/>
    <path d="M136.645 222.315L123.255 217.97L113.32 215.24L82.5792 220.483L104.359 228.159L136.645 222.315Z" fill="#FFCD8C"/>
    <path d="M104.359 266.294L83.0449 257.407L82.5792 220.483L104.359 228.159V266.294Z" fill="#C99D62"/>
    <path opacity="0.2" d="M109.664 227.199L104.359 231.274L96.5446 236.646L96.0701 262.838L92.0852 261.106V223.725L104.359 228.159L109.664 227.199Z" fill="black"/>
    <path d="M91.4856 223.834C91.457 223.834 91.4315 223.814 91.4263 223.784C91.4203 223.752 91.442 223.72 91.4749 223.714L123.244 217.911C123.277 217.905 123.308 217.926 123.314 217.959C123.32 217.992 123.298 218.023 123.265 218.029L91.4965 223.833C91.4927 223.834 91.4891 223.834 91.4856 223.834Z" fill="#B38358"/>
    <path d="M104.19 228.304C104.184 228.304 104.177 228.302 104.17 228.3L82.6645 220.734C82.6331 220.723 82.6165 220.689 82.6276 220.657C82.6386 220.626 82.6734 220.61 82.7046 220.62L104.21 228.186C104.242 228.197 104.258 228.232 104.247 228.263C104.239 228.288 104.215 228.304 104.19 228.304Z" fill="#B38358"/>
    <path d="M124.885 218.524L93.4432 224.43V232.776L90.1968 231.249L89.9681 223.247L121.105 217.416L124.885 218.524Z" fill="white"/>
    <path d="M71.42 277.893L37.2501 270.686V231.348L71.42 237.534V277.893Z" fill="#E8BB7F"/>
    <path d="M37.2501 231.348L51.4221 226.75L61.9358 223.861L94.4706 229.41L71.42 237.534L37.2501 231.348Z" fill="#FFCD8C"/>
    <path d="M71.42 277.893L93.9779 268.487L94.4707 229.41L71.42 237.534V277.893Z" fill="#DEB275"/>
    <path d="M85.0446 232.956C85.0409 232.956 85.037 232.955 85.0332 232.955L51.4106 226.813C51.3758 226.806 51.3529 226.773 51.3592 226.738C51.3655 226.704 51.3993 226.681 51.4335 226.687L85.0561 232.829C85.0909 232.835 85.1138 232.869 85.1075 232.903C85.1018 232.934 85.075 232.956 85.0446 232.956Z" fill="#B38358"/>
    <path d="M71.5986 237.686C71.5723 237.686 71.5475 237.67 71.5383 237.644C71.5266 237.61 71.5441 237.574 71.5774 237.562L94.3381 229.555C94.3713 229.543 94.4078 229.56 94.4196 229.594C94.4313 229.627 94.4138 229.664 94.3805 229.675L71.6198 237.683C71.6127 237.685 71.6056 237.686 71.5986 237.686Z" fill="#B38358"/>
    <path d="M49.6962 227.336L82.9727 233.587V242.419L86.4087 240.804L86.6506 232.334L53.6972 226.164L49.6962 227.336Z" fill="white"/>
    <path opacity="0.2" d="M64.6504 224.83L62.7111 225.363L80.5885 234.371L94.3592 248.462L94.4706 229.41L64.6504 224.83Z" fill="black"/>
    <path d="M80.5885 234.371L109.612 228.25V194.836L80.5885 200.09V234.371Z" fill="#E8BB7F"/>
    <path d="M109.612 194.836L97.5746 190.931L88.6443 188.477L61.0095 193.19L80.5885 200.09L109.612 194.836Z" fill="#FFCD8C"/>
    <path d="M80.5885 234.371L61.428 226.382L61.0095 193.19L80.5885 200.09V234.371Z" fill="#DEB275"/>
    <path d="M69.0158 196.202C68.9901 196.202 68.9673 196.184 68.9624 196.157C68.957 196.128 68.9766 196.1 69.0061 196.094L97.5649 190.877C97.5946 190.871 97.6228 190.891 97.628 190.921C97.6334 190.95 97.6139 190.979 97.5843 190.984L69.0255 196.201C69.0223 196.202 69.0189 196.202 69.0158 196.202Z" fill="#B38358"/>
    <path d="M80.4368 200.22C80.4309 200.22 80.4247 200.219 80.4189 200.217L61.0861 193.415C61.0578 193.405 61.0429 193.374 61.0529 193.346C61.063 193.318 61.0942 193.303 61.1221 193.313L80.4549 200.115C80.4832 200.125 80.498 200.156 80.4881 200.184C80.4802 200.206 80.4592 200.22 80.4368 200.22Z" fill="#B38358"/>
    <path d="M99.0406 191.428L70.7757 196.738V204.24L67.8572 202.868L67.6517 195.674L95.6421 190.433L99.0406 191.428Z" fill="white"/>
    <path d="M16.4658 322.86C16.3511 322.86 16.2518 322.774 16.238 322.658L8.17973 255.087C8.16476 254.961 8.25469 254.846 8.38062 254.831C8.50642 254.815 8.62103 254.906 8.63613 255.032L16.6944 322.603C16.7093 322.729 16.6194 322.843 16.4935 322.858C16.4842 322.86 16.4749 322.86 16.4658 322.86Z" fill="#E6E6E6"/>
    <path d="M26.3613 324.547C26.2459 324.547 26.1464 324.46 26.1332 324.343L18.4905 256.326C18.4763 256.2 18.5671 256.086 18.6933 256.072C18.8193 256.059 18.9331 256.149 18.9473 256.275L26.59 324.291C26.6041 324.417 26.5134 324.531 26.3872 324.545C26.3785 324.546 26.3698 324.547 26.3613 324.547Z" fill="#E6E6E6"/>
    <path d="M36.4048 326.258C36.2888 326.258 36.1891 326.171 36.1766 326.053L28.9633 257.585C28.95 257.458 29.0415 257.345 29.1677 257.332C29.2937 257.321 29.4071 257.41 29.4203 257.537L36.6335 326.004C36.6469 326.131 36.5553 326.244 36.4291 326.257C36.4212 326.258 36.4129 326.258 36.4048 326.258Z" fill="#E6E6E6"/>
    <path d="M46.6003 327.996C46.4836 327.996 46.3837 327.907 46.372 327.789L39.6023 258.863C39.59 258.737 39.6822 258.625 39.8086 258.612C39.9346 258.6 40.0474 258.692 40.0598 258.819L46.8294 327.744C46.8418 327.87 46.7495 327.983 46.6231 327.995C46.6156 327.996 46.6079 327.996 46.6003 327.996Z" fill="#E6E6E6"/>
    <path d="M56.9511 329.76C56.8337 329.76 56.7334 329.67 56.7226 329.551L50.4112 260.163C50.3998 260.036 50.493 259.924 50.6193 259.913C50.7455 259.901 50.8575 259.994 50.869 260.121L57.1804 329.509C57.1918 329.636 57.0986 329.747 56.9723 329.759C56.9653 329.76 56.9582 329.76 56.9511 329.76Z" fill="#E6E6E6"/>
    <path d="M67.4609 331.551C67.3426 331.551 67.242 331.46 67.2321 331.34L61.3945 261.483C61.384 261.356 61.4779 261.245 61.6044 261.234C61.7333 261.225 61.8421 261.318 61.8526 261.444L67.6902 331.302C67.7007 331.429 67.6068 331.54 67.4803 331.55C67.4738 331.551 67.4672 331.551 67.4609 331.551Z" fill="#E6E6E6"/>
    <path d="M78.1328 333.37C78.0138 333.37 77.9131 333.278 77.9039 333.158L72.5559 262.824C72.5462 262.697 72.6409 262.587 72.7675 262.577C72.8948 262.569 73.0044 262.662 73.0141 262.789L78.3622 333.123C78.3719 333.249 78.277 333.36 78.1505 333.369C78.1446 333.37 78.1386 333.37 78.1328 333.37Z" fill="#E6E6E6"/>
    <path d="M85.7769 335.161C85.7368 335.161 85.6964 335.158 85.6562 335.151L8.80196 322.053C8.48903 321.999 8.24822 321.747 8.20966 321.432L0.00540798 254.221C-0.0212883 254.002 0.0540822 253.783 0.21008 253.627C0.365943 253.471 0.584907 253.394 0.80414 253.421L81.2157 263.097C81.5589 263.139 81.8239 263.419 81.8466 263.763L86.4935 334.396C86.5079 334.615 86.4211 334.829 86.2578 334.976C86.1249 335.096 85.9531 335.161 85.7769 335.161ZM9.57063 320.726L85.0005 333.582L80.4526 264.453L1.54247 254.957L9.57063 320.726Z" fill="#E6E6E6"/>
    <path d="M3.92013 274.977L3.79077 275.829L82.9168 287.845L83.0462 286.993L3.92013 274.977Z" fill="#E6E6E6"/>
    <path d="M6.43026 299.184L6.3009 300.036L84.2123 311.868L84.3417 311.015L6.43026 299.184Z" fill="#E6E6E6"/>
    <path d="M85.7768 335.161C85.6386 335.161 85.5015 335.122 85.383 335.044C85.1945 334.92 85.0749 334.715 85.0602 334.49L80.4133 263.858C80.393 263.55 80.5719 263.263 80.8573 263.146L175.228 224.428C175.457 224.334 175.719 224.365 175.921 224.511C176.122 224.656 176.234 224.895 176.217 225.143L170.722 304.274C170.702 304.558 170.516 304.804 170.248 304.9L86.0193 335.119C85.9405 335.147 85.8586 335.161 85.7768 335.161ZM81.8805 264.279L86.4309 333.445L169.322 303.706L174.704 226.196L81.8805 264.279Z" fill="#E6E6E6"/>
    <path d="M173.544 250.374L82.5171 287.036L82.8389 287.836L173.866 251.173L173.544 250.374Z" fill="#E6E6E6"/>
    <path d="M171.688 277.319L84.1023 311.092L84.4123 311.897L171.998 278.124L171.688 277.319Z" fill="#E6E6E6"/>
    <path d="M92.9748 332.09C92.8549 332.09 92.7539 331.997 92.7457 331.876L87.9493 260.934C87.9408 260.808 88.0364 260.698 88.163 260.689C88.289 260.68 88.3992 260.777 88.4078 260.903L93.2042 331.845C93.2127 331.971 93.1171 332.081 92.9904 332.09C92.9851 332.09 92.9799 332.09 92.9748 332.09Z" fill="#E6E6E6"/>
    <path d="M99.6988 329.678C99.5777 329.678 99.4762 329.583 99.4696 329.46L95.5406 257.817C95.5338 257.69 95.6308 257.582 95.7576 257.575C95.8828 257.568 95.9927 257.665 95.9996 257.792L99.9285 329.435C99.9354 329.562 99.8383 329.671 99.7116 329.677C99.7074 329.678 99.7031 329.678 99.6988 329.678Z" fill="#E6E6E6"/>
    <path d="M106.487 327.242C106.364 327.242 106.263 327.146 106.257 327.022L103.214 254.665C103.209 254.539 103.307 254.432 103.434 254.426C103.562 254.421 103.668 254.519 103.673 254.646L106.717 327.003C106.722 327.13 106.624 327.237 106.497 327.242C106.494 327.242 106.49 327.242 106.487 327.242Z" fill="#E6E6E6"/>
    <path d="M113.34 324.784C113.217 324.784 113.114 324.685 113.111 324.56L110.971 251.48C110.968 251.353 111.067 251.247 111.194 251.243C111.319 251.237 111.427 251.34 111.431 251.467L113.57 324.547C113.574 324.674 113.474 324.78 113.347 324.783C113.345 324.784 113.343 324.784 113.34 324.784Z" fill="#E6E6E6"/>
    <path d="M120.26 322.301C120.134 322.301 120.032 322.201 120.03 322.075L118.813 248.26C118.811 248.133 118.912 248.028 119.039 248.026C119.169 248.022 119.271 248.125 119.273 248.252L120.49 322.067C120.492 322.194 120.391 322.299 120.264 322.301C120.262 322.301 120.261 322.301 120.26 322.301Z" fill="#E6E6E6"/>
    <path d="M127.246 319.794C127.12 319.794 127.017 319.692 127.016 319.565L126.742 245.004C126.741 244.877 126.844 244.774 126.971 244.773C126.971 244.773 126.971 244.773 126.971 244.773C127.098 244.773 127.201 244.876 127.201 245.002L127.476 319.564C127.476 319.691 127.374 319.794 127.247 319.794C127.247 319.794 127.246 319.794 127.246 319.794Z" fill="#E6E6E6"/>
    <path d="M134.3 317.264C134.3 317.264 134.299 317.264 134.298 317.264C134.171 317.262 134.069 317.159 134.071 317.032L134.758 241.712C134.759 241.586 134.861 241.485 134.987 241.485C134.988 241.485 134.989 241.485 134.989 241.485C135.116 241.486 135.218 241.589 135.217 241.717L134.53 317.036C134.529 317.162 134.427 317.264 134.3 317.264Z" fill="#E6E6E6"/>
    <path d="M141.424 314.708C141.422 314.708 141.421 314.708 141.419 314.708C141.292 314.705 141.191 314.6 141.194 314.473L142.863 238.384C142.865 238.257 142.965 238.16 143.098 238.159C143.225 238.162 143.325 238.267 143.322 238.394L141.654 314.483C141.651 314.608 141.548 314.708 141.424 314.708Z" fill="#E6E6E6"/>
    <path d="M148.617 312.127C148.615 312.127 148.612 312.127 148.609 312.127C148.482 312.123 148.383 312.016 148.387 311.889L151.059 235.018C151.063 234.892 151.173 234.79 151.296 234.797C151.423 234.801 151.522 234.908 151.518 235.034L148.847 311.905C148.842 312.029 148.74 312.127 148.617 312.127Z" fill="#E6E6E6"/>
    <path d="M155.881 309.521C155.878 309.521 155.874 309.521 155.87 309.521C155.744 309.515 155.646 309.407 155.652 309.28L159.346 231.615C159.353 231.489 159.46 231.388 159.587 231.397C159.714 231.403 159.812 231.511 159.806 231.637L156.111 309.302C156.105 309.425 156.003 309.521 155.881 309.521Z" fill="#E6E6E6"/>
    <path d="M163.218 306.889C163.213 306.889 163.209 306.889 163.204 306.888C163.077 306.881 162.981 306.772 162.988 306.645L167.728 228.174C167.736 228.047 167.846 227.95 167.972 227.958C168.098 227.966 168.195 228.075 168.187 228.202L163.447 306.673C163.44 306.795 163.338 306.889 163.218 306.889Z" fill="#E6E6E6"/>
    <path d="M373.943 35.7229C374.16 31.1742 373.311 27.4377 372.047 27.3771C370.782 27.3166 369.58 30.9549 369.363 35.5036C369.145 40.0523 369.994 43.7888 371.259 43.8493C372.523 43.9099 373.725 40.2715 373.943 35.7229Z" fill="#919191"/>
    <path d="M372.781 60.0324C372.998 55.4837 372.149 51.7472 370.885 51.6867C369.62 51.6261 368.418 55.2645 368.201 59.8131C367.983 64.3618 368.832 68.0983 370.097 68.1588C371.361 68.2194 372.563 64.581 372.781 60.0324Z" fill="#919191"/>
    <path opacity="0.5" d="M276.909 415.148C289.128 415.148 299.033 410.48 299.033 404.721C299.033 398.963 289.128 394.295 276.909 394.295C264.69 394.295 254.784 398.963 254.784 404.721C254.784 410.48 264.69 415.148 276.909 415.148Z" fill="url(#paint3_linear_113_8933)"/>
    <path opacity="0.5" d="M345.713 427C359.369 427 370.439 421.384 370.439 414.456C370.439 407.528 359.369 401.912 345.713 401.912C332.058 401.912 320.987 407.528 320.987 414.456C320.987 421.384 332.058 427 345.713 427Z" fill="url(#paint4_linear_113_8933)"/>
    <path opacity="0.5" d="M283.307 378.977C293.712 378.977 302.147 374.698 302.147 369.42C302.147 364.141 293.712 359.862 283.307 359.862C272.903 359.862 264.468 364.141 264.468 369.42C264.468 374.698 272.903 378.977 283.307 378.977Z" fill="url(#paint5_linear_113_8933)"/>
    <path d="M501.155 138.151L397.824 130.479C394.577 130.238 392.054 127.101 392.169 123.47L394.071 63.9024C394.187 60.2719 396.904 57.3294 400.159 57.3301L503.734 57.3541C507.733 57.355 510.891 60.6478 510.762 64.7087L508.635 131.337C508.505 135.397 505.144 138.448 501.155 138.151Z" fill="url(#paint6_linear_113_8933)"/>
    <path d="M411.641 76.0391L419.645 76.1904L419.758 72.6449C419.796 71.4639 418.954 70.4951 417.88 70.4808L406.755 70.3332L406.486 78.7796C406.47 79.2852 406.215 79.6897 405.76 79.6793C405.306 79.669 405.14 79.2557 405.157 78.7507L405.426 70.3155L403.531 70.2903C402.489 70.2766 401.617 71.2054 401.58 72.365L401.255 82.5446L411.569 82.8092C411.894 82.8175 412.181 83.083 412.202 83.4405C412.226 83.8517 411.924 84.1896 411.561 84.1797L401.211 83.9L401.077 88.0994C401.04 89.259 401.852 90.2272 402.893 90.2619L417.233 90.7406C418.306 90.7765 419.209 89.8482 419.246 88.6673L419.6 77.5977L411.561 77.4346C411.191 77.427 410.906 77.0691 410.957 76.6522C411.002 76.2898 411.311 76.0329 411.641 76.0391Z" fill="url(#paint7_linear_113_8933)"/>
    <path d="M498.995 128.896L473.532 127.218L473.949 114.154L499.422 115.519L498.995 128.896Z" fill="#EDECEB"/>
    <path d="M421.315 98.4548L400.774 97.6151L400.593 103.29L421.13 104.248L421.315 98.4548Z" fill="#EDECEB"/>
    <path d="M424.274 98.5758L424.089 104.386L446.034 105.408L446.223 99.4728L424.274 98.5758Z" fill="#EDECEB"/>
    <path d="M474.966 100.648L474.771 106.748L499.52 107.901L499.719 101.659L474.966 100.648Z" fill="#EDECEB"/>
    <path d="M471.524 100.507L449.744 99.6167L449.554 105.572L471.33 106.587L471.524 100.507Z" fill="#EDECEB"/>
    <path d="M466.445 121.582L400.258 117.544L400.492 110.217L466.694 113.765L466.445 121.582Z" fill="#EDCF85"/>
    <path d="M469.625 64.7091L501.037 64.9346L500.737 74.3315L469.334 73.8356L469.625 64.7091Z" fill="#EDECEB"/>
    <path d="M174.178 156.509L94.2625 150.575C91.7509 150.389 89.7995 147.962 89.8892 145.154L91.3599 99.0849C91.4496 96.2771 93.551 94.0014 96.0686 94.0019L176.173 94.0205C179.266 94.0212 181.709 96.5679 181.608 99.7086L179.963 151.238C179.863 154.379 177.264 156.738 174.178 156.509Z" fill="#9EECF0"/>
    <path d="M104.948 108.471L111.138 108.588L111.226 105.846C111.255 104.933 110.604 104.184 109.773 104.173L101.17 104.058L100.961 110.591C100.949 110.982 100.751 111.295 100.4 111.287C100.048 111.279 99.9206 110.959 99.9332 110.569L100.141 104.045L98.6755 104.026C97.87 104.015 97.1952 104.733 97.1666 105.63L96.9153 113.503L104.893 113.708C105.143 113.714 105.366 113.919 105.382 114.196C105.4 114.514 105.167 114.775 104.886 114.768L96.882 114.551L96.7783 117.799C96.7497 118.696 97.3777 119.445 98.1825 119.472L109.273 119.842C110.103 119.869 110.801 119.152 110.83 118.238L111.103 109.677L104.886 109.551C104.6 109.545 104.38 109.268 104.419 108.946C104.454 108.665 104.693 108.467 104.948 108.471Z" fill="url(#paint8_linear_113_8933)"/>
    <path d="M172.508 149.351L152.814 148.053L153.137 137.95L172.838 139.006L172.508 149.351Z" fill="#1FBFC7"/>
    <path d="M112.43 125.808L96.5433 125.158L96.4032 129.548L112.287 130.288L112.43 125.808Z" fill="#1FBFC7"/>
    <path d="M114.719 125.901L114.575 130.395L131.547 131.186L131.694 126.595L114.719 125.901Z" fill="#1FBFC7"/>
    <path d="M153.923 127.504L153.773 132.221L172.914 133.114L173.068 128.286L153.923 127.504Z" fill="#1FBFC7"/>
    <path d="M151.262 127.395L134.417 126.706L134.27 131.312L151.112 132.098L151.262 127.395Z" fill="#1FBFC7"/>
    <path d="M147.333 143.695L96.1444 140.572L96.3254 134.904L147.526 137.649L147.333 143.695Z" fill="#50E3EB"/>
    <path d="M149.793 99.7088L174.087 99.8832L173.855 107.151L149.568 106.767L149.793 99.7088Z" fill="#1FBFC7"/>
    <path d="M296.151 400.829C293.221 396.997 285.439 394.257 276.298 394.257C267.156 394.257 259.374 396.997 256.444 400.829H255.2V404.199C255.2 409.69 264.646 414.142 276.298 414.142C287.949 414.142 297.395 409.69 297.395 404.199V400.829H296.151Z" fill="#D9C561"/>
    <path d="M276.298 410.771C287.949 410.771 297.395 406.32 297.395 400.829C297.395 395.338 287.949 390.886 276.298 390.886C264.646 390.886 255.2 395.338 255.2 400.829C255.2 406.32 264.646 410.771 276.298 410.771Z" fill="#E8DC68"/>
    <path d="M276.298 410.146C287.217 410.146 296.069 405.975 296.069 400.829C296.069 395.683 287.217 391.511 276.298 391.511C265.378 391.511 256.526 395.683 256.526 400.829C256.526 405.975 265.378 410.146 276.298 410.146Z" fill="#FFF39E"/>
    <path d="M276.298 409.291C271.459 409.291 266.908 408.421 263.483 406.841C260.022 405.245 258.116 403.11 258.116 400.829C258.116 398.548 260.022 396.412 263.483 394.816C266.908 393.236 271.459 392.366 276.298 392.366C281.136 392.366 285.687 393.236 289.112 394.816C292.573 396.412 294.479 398.548 294.479 400.829C294.479 403.11 292.573 405.245 289.112 406.841C285.687 408.421 281.136 409.291 276.298 409.291ZM276.298 392.652C266.43 392.652 258.402 396.32 258.402 400.829C258.402 405.337 266.43 409.005 276.298 409.005C286.165 409.005 294.193 405.337 294.193 400.829C294.193 396.32 286.165 392.652 276.298 392.652Z" fill="#E8DC68"/>
    <path d="M276.297 408.951C286.023 408.951 293.908 405.314 293.908 400.829C293.908 396.343 286.023 392.707 276.297 392.707C266.572 392.707 258.687 396.343 258.687 400.829C258.687 405.314 266.572 408.951 276.297 408.951Z" fill="#FFF39E"/>
    <path d="M271.704 404.833C271.809 404.232 270.741 403.619 270.741 403.619C270.741 403.619 269.501 403.981 269.395 404.582C269.3 405.125 270.162 405.677 270.33 405.778C269.098 405.486 268.017 405.122 267.105 404.696C267.308 404.658 268.368 404.438 268.708 403.938C269.084 403.384 268.434 402.696 268.434 402.696C268.434 402.696 267.173 402.906 266.797 403.46C266.473 403.936 266.907 404.511 267.036 404.663C266.225 404.279 265.552 403.845 265.03 403.369C265.082 403.362 265.111 403.357 265.111 403.357C265.111 403.357 265.088 403.324 265.039 403.272C265.314 403.232 266.237 403.069 266.639 402.647C267.115 402.147 266.679 401.474 266.679 401.474C266.679 401.474 265.472 401.611 264.996 402.11C264.661 402.463 264.779 402.901 264.878 403.129C264.812 403.078 264.731 403.023 264.634 402.968C264.225 402.502 263.953 402.002 263.827 401.474C264.166 401.472 264.979 401.435 265.593 401.146C266.388 400.772 266.544 400.118 266.544 400.118C266.544 400.118 265.411 400.069 264.617 400.443C264.146 400.665 263.899 400.985 263.776 401.209C263.773 401.191 263.769 401.174 263.767 401.156C263.698 400.602 263.798 400.065 264.05 399.553C264.237 399.568 265.136 399.623 265.933 399.364C266.827 399.074 267.251 398.498 267.251 398.498C267.251 398.498 266.225 398.392 265.331 398.683C264.681 398.894 264.28 399.256 264.11 399.438C264.454 398.801 265.038 398.205 265.836 397.669C266.128 397.703 266.893 397.768 267.677 397.627C268.673 397.448 269.319 397.003 269.319 397.003C269.319 397.003 268.35 396.848 267.353 397.028C267.027 397.086 266.739 397.174 266.498 397.265C267.186 396.882 267.993 396.537 268.908 396.238C269.134 396.254 269.986 396.296 270.792 396.094C271.731 395.857 272.249 395.378 272.249 395.378C272.249 395.378 271.245 395.281 270.306 395.517C269.647 395.683 269.196 395.969 268.985 396.124C268.068 396.414 267.254 396.749 266.554 397.121C266.621 397.053 266.68 396.981 266.722 396.902C266.979 396.423 266.563 395.923 266.563 395.923C266.563 395.923 265.73 396.199 265.473 396.678C265.216 397.156 265.632 397.657 265.632 397.657C265.632 397.657 265.655 397.649 265.692 397.635C265.051 398.067 264.547 398.538 264.194 399.037C264.198 398.917 264.164 398.784 264.057 398.647C263.687 398.172 262.595 397.831 262.595 397.831C262.595 397.831 262.103 398.259 262.473 398.733C262.801 399.154 263.695 399.47 263.894 399.536C263.639 400.055 263.538 400.599 263.608 401.16C263.621 401.264 263.642 401.368 263.666 401.47C263.666 401.471 263.666 401.472 263.666 401.472H263.666C263.779 401.946 264.013 402.402 264.361 402.833C264.162 402.75 263.919 402.674 263.621 402.624C262.509 402.439 261.082 402.684 261.082 402.684C261.082 402.684 261.459 403.231 262.571 403.416C263.416 403.557 264.442 403.449 264.887 403.389C265.325 403.789 265.871 404.162 266.519 404.502C268.197 405.384 270.518 406.03 273.229 406.372L273.271 406.301C272.233 406.17 271.267 405.998 270.378 405.789C270.531 405.742 271.606 405.39 271.704 404.833Z" fill="#E8DB52"/>
    <path d="M267.999 405.39C266.694 405.355 265.39 405.861 265.39 405.861C265.39 405.861 266.201 406.425 267.506 406.46C268.811 406.496 270.115 405.99 270.115 405.99C270.115 405.99 269.304 405.426 267.999 405.39Z" fill="#E8DB52"/>
    <path d="M264.935 404.148C263.685 404.078 262.336 404.498 262.336 404.498C262.336 404.498 263.013 405.031 264.263 405.101C265.513 405.171 266.862 404.751 266.862 404.751C266.862 404.751 266.185 404.218 264.935 404.148Z" fill="#E8DB52"/>
    <path d="M263.666 401.542C263.666 401.542 263.573 401.02 262.636 400.724C261.699 400.428 260.274 400.471 260.274 400.471C260.274 400.471 260.367 400.994 261.304 401.29C262.241 401.586 263.666 401.542 263.666 401.542Z" fill="#E8DB52"/>
    <path d="M284.596 405.296C283.291 405.331 282.48 405.895 282.48 405.895C282.48 405.895 283.784 406.401 285.089 406.365C286.394 406.33 287.205 405.766 287.205 405.766C287.205 405.766 285.901 405.26 284.596 405.296Z" fill="#E8DB52"/>
    <path d="M287.66 404.053C286.411 404.123 285.733 404.657 285.733 404.657C285.733 404.657 287.082 405.077 288.332 405.006C289.582 404.936 290.259 404.403 290.259 404.403C290.259 404.403 288.91 403.983 287.66 404.053Z" fill="#E8DB52"/>
    <path d="M288.973 402.53C288.676 402.579 288.433 402.655 288.234 402.739C288.582 402.307 288.816 401.851 288.929 401.377H288.929C288.929 401.377 288.929 401.376 288.929 401.376C288.953 401.273 288.974 401.17 288.987 401.065C289.057 400.504 288.956 399.96 288.701 399.441C288.899 399.375 289.794 399.06 290.122 398.639C290.492 398.164 289.999 397.736 289.999 397.736C289.999 397.736 288.907 398.077 288.537 398.552C288.43 398.689 288.397 398.822 288.401 398.942C288.047 398.443 287.544 397.972 286.902 397.54C286.939 397.554 286.962 397.562 286.962 397.562C286.962 397.562 287.379 397.062 287.121 396.583C286.864 396.104 286.031 395.828 286.031 395.828C286.031 395.828 285.615 396.328 285.872 396.807C285.915 396.886 285.974 396.958 286.041 397.026C285.341 396.654 284.527 396.32 283.61 396.029C283.399 395.874 282.948 395.589 282.288 395.423C281.349 395.187 280.345 395.283 280.345 395.283C280.345 395.283 280.863 395.763 281.803 395.999C282.609 396.201 283.461 396.159 283.686 396.143C284.601 396.442 285.408 396.787 286.096 397.17C285.856 397.079 285.568 396.991 285.241 396.933C284.245 396.753 283.276 396.908 283.276 396.908C283.276 396.908 283.921 397.353 284.918 397.532C285.702 397.674 286.467 397.608 286.758 397.574C287.556 398.11 288.14 398.706 288.485 399.343C288.315 399.161 287.914 398.799 287.264 398.588C286.37 398.298 285.344 398.403 285.344 398.403C285.344 398.403 285.768 398.979 286.662 399.27C287.459 399.529 288.358 399.473 288.545 399.458C288.797 399.97 288.896 400.508 288.828 401.061C288.826 401.079 288.822 401.097 288.819 401.114C288.696 400.89 288.45 400.57 287.978 400.348C287.183 399.974 286.051 400.023 286.051 400.023C286.051 400.023 286.207 400.678 287.002 401.052C287.615 401.34 288.429 401.377 288.768 401.379C288.642 401.907 288.37 402.407 287.961 402.873C287.864 402.928 287.782 402.984 287.717 403.034C287.816 402.806 287.934 402.368 287.598 402.016C287.123 401.516 285.916 401.379 285.916 401.379C285.916 401.379 285.48 402.052 285.955 402.552C286.358 402.974 287.28 403.137 287.556 403.177C287.506 403.229 287.483 403.262 287.483 403.262C287.483 403.262 287.513 403.267 287.565 403.275C287.043 403.75 286.369 404.184 285.558 404.569C285.687 404.416 286.122 403.841 285.798 403.365C285.422 402.811 284.161 402.601 284.161 402.601C284.161 402.601 283.51 403.289 283.887 403.843C284.227 404.343 285.286 404.563 285.49 404.601C284.578 405.027 283.497 405.391 282.264 405.684C282.433 405.582 283.295 405.03 283.199 404.487C283.094 403.887 281.854 403.525 281.854 403.525C281.854 403.525 280.785 404.137 280.891 404.738C280.989 405.296 282.063 405.647 282.216 405.695C281.327 405.904 280.361 406.076 279.323 406.206L279.365 406.277C282.076 405.936 284.397 405.29 286.075 404.408C286.723 404.068 287.269 403.695 287.707 403.295C288.152 403.355 289.178 403.463 290.023 403.322C291.135 403.136 291.513 402.59 291.513 402.59C291.513 402.59 290.086 402.344 288.973 402.53Z" fill="#E8DB52"/>
    <path d="M289.959 400.629C289.022 400.925 288.929 401.448 288.929 401.448C288.929 401.448 290.354 401.491 291.291 401.195C292.228 400.899 292.321 400.376 292.321 400.376C292.321 400.376 290.896 400.333 289.959 400.629Z" fill="#E8DB52"/>
    <path d="M276.297 403.396C279.372 403.396 281.865 402.247 281.865 400.829C281.865 399.411 279.372 398.261 276.297 398.261C273.223 398.261 270.73 399.411 270.73 400.829C270.73 402.247 273.223 403.396 276.297 403.396Z" fill="#E8DB52"/>
    <path d="M366.413 411.606C363.2 407.403 354.664 404.398 344.639 404.398C334.613 404.398 326.078 407.403 322.865 411.606H321.5V415.303C321.5 421.325 331.86 426.207 344.639 426.207C357.418 426.207 367.778 421.325 367.778 415.303V411.606H366.413Z" fill="#D9C561"/>
    <path d="M344.639 422.511C357.418 422.511 367.778 417.628 367.778 411.606C367.778 405.584 357.418 400.702 344.639 400.702C331.86 400.702 321.5 405.584 321.5 411.606C321.5 417.628 331.86 422.511 344.639 422.511Z" fill="#E8DC68"/>
    <path d="M344.639 421.825C356.615 421.825 366.323 417.25 366.323 411.606C366.323 405.962 356.615 401.387 344.639 401.387C332.663 401.387 322.955 405.962 322.955 411.606C322.955 417.25 332.663 421.825 344.639 421.825Z" fill="#FFF39E"/>
    <path d="M344.639 420.887C339.332 420.887 334.341 419.933 330.584 418.2C326.789 416.45 324.699 414.108 324.699 411.606C324.699 409.104 326.789 406.762 330.584 405.012C334.341 403.279 339.332 402.325 344.639 402.325C349.945 402.325 354.937 403.279 358.693 405.012C362.489 406.762 364.579 409.104 364.579 411.606C364.579 414.108 362.489 416.45 358.693 418.2C354.937 419.933 349.945 420.887 344.639 420.887ZM344.639 402.639C333.817 402.639 325.012 406.661 325.012 411.606C325.012 416.551 333.817 420.573 344.639 420.573C355.461 420.573 364.265 416.551 364.265 411.606C364.265 406.661 355.461 402.639 344.639 402.639Z" fill="#E8DC68"/>
    <path d="M344.639 420.514C355.306 420.514 363.953 416.526 363.953 411.606C363.953 406.686 355.306 402.698 344.639 402.698C333.972 402.698 325.325 406.686 325.325 411.606C325.325 416.526 333.972 420.514 344.639 420.514Z" fill="#FFF39E"/>
    <path d="M339.601 415.997C339.717 415.338 338.544 414.667 338.544 414.667C338.544 414.667 337.185 415.064 337.069 415.723C336.964 416.318 337.91 416.923 338.094 417.035C336.742 416.714 335.557 416.314 334.557 415.848C334.78 415.806 335.942 415.565 336.315 415.016C336.728 414.408 336.015 413.654 336.015 413.654C336.015 413.654 334.632 413.884 334.219 414.492C333.864 415.014 334.341 415.644 334.482 415.812C333.593 415.39 332.854 414.914 332.282 414.392C332.339 414.384 332.371 414.378 332.371 414.378C332.371 414.378 332.346 414.342 332.291 414.286C332.594 414.241 333.606 414.063 334.047 413.6C334.568 413.052 334.09 412.313 334.09 412.313C334.09 412.313 332.766 412.464 332.245 413.012C331.877 413.398 332.006 413.879 332.115 414.129C332.043 414.073 331.954 414.013 331.847 413.952C331.399 413.441 331.1 412.893 330.962 412.313C331.334 412.311 332.226 412.271 332.899 411.954C333.771 411.544 333.942 410.826 333.942 410.826C333.942 410.826 332.7 410.773 331.828 411.183C331.311 411.426 331.041 411.777 330.906 412.023C330.903 412.003 330.899 411.984 330.897 411.965C330.821 411.358 330.93 410.768 331.207 410.207C331.411 410.223 332.398 410.284 333.272 410C334.252 409.681 334.717 409.049 334.717 409.049C334.717 409.049 333.592 408.934 332.612 409.252C331.899 409.484 331.459 409.881 331.272 410.08C331.65 409.382 332.291 408.728 333.166 408.14C333.486 408.178 334.325 408.25 335.185 408.095C336.278 407.898 336.986 407.41 336.986 407.41C336.986 407.41 335.922 407.24 334.83 407.437C334.472 407.501 334.156 407.597 333.892 407.697C334.647 407.278 335.532 406.899 336.535 406.571C336.783 406.588 337.717 406.635 338.601 406.413C339.631 406.154 340.2 405.628 340.2 405.628C340.2 405.628 339.098 405.522 338.068 405.781C337.345 405.963 336.85 406.276 336.619 406.446C335.613 406.765 334.721 407.132 333.953 407.539C334.026 407.465 334.091 407.386 334.138 407.299C334.419 406.774 333.963 406.225 333.963 406.225C333.963 406.225 333.05 406.528 332.768 407.053C332.486 407.579 332.942 408.127 332.942 408.127C332.942 408.127 332.967 408.119 333.008 408.103C332.305 408.577 331.752 409.093 331.364 409.641C331.369 409.509 331.332 409.364 331.215 409.213C330.809 408.693 329.611 408.318 329.611 408.318C329.611 408.318 329.071 408.788 329.477 409.308C329.837 409.77 330.818 410.116 331.036 410.188C330.756 410.757 330.645 411.355 330.722 411.969C330.736 412.084 330.759 412.197 330.785 412.31C330.785 412.31 330.785 412.311 330.785 412.311H330.786C330.909 412.831 331.166 413.331 331.548 413.805C331.33 413.713 331.063 413.63 330.737 413.576C329.516 413.372 327.951 413.642 327.951 413.642C327.951 413.642 328.365 414.241 329.585 414.444C330.512 414.599 331.637 414.481 332.125 414.415C332.606 414.853 333.204 415.262 333.914 415.635C335.755 416.602 338.3 417.311 341.274 417.686L341.32 417.608C340.182 417.464 339.122 417.276 338.147 417.046C338.315 416.995 339.493 416.609 339.601 415.997Z" fill="#E8DB52"/>
    <path d="M335.538 416.609C334.106 416.57 332.676 417.125 332.676 417.125C332.676 417.125 333.566 417.743 334.997 417.782C336.428 417.822 337.858 417.267 337.858 417.267C337.858 417.267 336.969 416.648 335.538 416.609Z" fill="#E8DB52"/>
    <path d="M332.177 415.246C330.806 415.169 329.326 415.63 329.326 415.63C329.326 415.63 330.069 416.215 331.44 416.292C332.811 416.369 334.29 415.908 334.29 415.908C334.29 415.908 333.548 415.323 332.177 415.246Z" fill="#E8DB52"/>
    <path d="M330.785 412.389C330.785 412.389 330.683 411.815 329.656 411.491C328.628 411.166 327.065 411.214 327.065 411.214C327.065 411.214 327.168 411.787 328.195 412.112C329.222 412.436 330.785 412.389 330.785 412.389Z" fill="#E8DB52"/>
    <path d="M353.74 416.505C352.309 416.544 351.419 417.163 351.419 417.163C351.419 417.163 352.85 417.718 354.281 417.678C355.712 417.639 356.602 417.021 356.602 417.021C356.602 417.021 355.171 416.466 353.74 416.505Z" fill="#E8DB52"/>
    <path d="M357.101 415.142C355.73 415.219 354.987 415.804 354.987 415.804C354.987 415.804 356.467 416.265 357.838 416.188C359.209 416.111 359.952 415.526 359.952 415.526C359.952 415.526 358.472 415.065 357.101 415.142Z" fill="#E8DB52"/>
    <path d="M358.541 413.472C358.215 413.526 357.948 413.609 357.73 413.701C358.112 413.227 358.368 412.727 358.492 412.207H358.493C358.493 412.207 358.492 412.206 358.492 412.206C358.519 412.093 358.542 411.98 358.556 411.866C358.632 411.251 358.522 410.653 358.242 410.084C358.46 410.012 359.441 409.666 359.801 409.204C360.206 408.684 359.666 408.214 359.666 408.214C359.666 408.214 358.468 408.588 358.063 409.109C357.945 409.26 357.909 409.405 357.913 409.537C357.525 408.989 356.973 408.473 356.27 407.999C356.31 408.014 356.335 408.023 356.335 408.023C356.335 408.023 356.792 407.474 356.51 406.949C356.228 406.424 355.314 406.121 355.314 406.121C355.314 406.121 354.858 406.67 355.14 407.195C355.186 407.281 355.251 407.361 355.325 407.435C354.557 407.028 353.664 406.661 352.658 406.342C352.427 406.172 351.932 405.859 351.209 405.677C350.179 405.418 349.078 405.524 349.078 405.524C349.078 405.524 349.646 406.05 350.676 406.309C351.56 406.531 352.495 406.484 352.742 406.467C353.746 406.795 354.631 407.174 355.385 407.593C355.121 407.493 354.806 407.398 354.448 407.333C353.355 407.136 352.292 407.306 352.292 407.306C352.292 407.306 353 407.794 354.093 407.991C354.952 408.146 355.792 408.074 356.112 408.036C356.987 408.624 357.627 409.278 358.005 409.976C357.818 409.777 357.379 409.38 356.666 409.148C355.685 408.83 354.56 408.945 354.56 408.945C354.56 408.945 355.025 409.577 356.006 409.896C356.88 410.18 357.866 410.119 358.071 410.103C358.347 410.664 358.457 411.254 358.381 411.861C358.379 411.88 358.374 411.9 358.372 411.919C358.237 411.673 357.966 411.322 357.45 411.079C356.578 410.669 355.335 410.722 355.335 410.722C355.335 410.722 355.507 411.44 356.378 411.85C357.052 412.167 357.943 412.207 358.316 412.209C358.178 412.789 357.879 413.337 357.43 413.848C357.324 413.909 357.235 413.969 357.163 414.025C357.271 413.775 357.401 413.294 357.033 412.908C356.511 412.36 355.188 412.209 355.188 412.209C355.188 412.209 354.709 412.948 355.231 413.496C355.672 413.959 356.684 414.137 356.987 414.182C356.932 414.238 356.907 414.274 356.907 414.274C356.907 414.274 356.939 414.28 356.996 414.288C356.424 414.81 355.685 415.286 354.796 415.708C354.937 415.54 355.413 414.91 355.058 414.388C354.646 413.78 353.263 413.549 353.263 413.549C353.263 413.549 352.549 414.304 352.962 414.912C353.335 415.461 354.497 415.702 354.721 415.744C353.721 416.21 352.535 416.61 351.183 416.931C351.368 416.819 352.313 416.214 352.209 415.618C352.093 414.96 350.733 414.562 350.733 414.562C350.733 414.562 349.561 415.234 349.677 415.893C349.784 416.505 350.963 416.891 351.131 416.942C350.155 417.172 349.095 417.36 347.957 417.504L348.003 417.582C350.977 417.207 353.522 416.498 355.363 415.531C356.074 415.158 356.672 414.749 357.153 414.311C357.641 414.377 358.766 414.495 359.692 414.34C360.913 414.137 361.326 413.538 361.326 413.538C361.326 413.538 359.761 413.268 358.541 413.472Z" fill="#E8DB52"/>
    <path d="M359.622 411.387C358.595 411.711 358.493 412.285 358.493 412.285C358.493 412.285 360.056 412.332 361.083 412.008C362.11 411.683 362.213 411.109 362.213 411.109C362.213 411.109 360.65 411.062 359.622 411.387Z" fill="#E8DB52"/>
    <path d="M344.639 414.422C348.011 414.422 350.745 413.161 350.745 411.606C350.745 410.051 348.011 408.79 344.639 408.79C341.267 408.79 338.533 410.051 338.533 411.606C338.533 413.161 341.267 414.422 344.639 414.422Z" fill="#E8DB52"/>
    <path d="M299.953 366.499C297.415 363.178 290.671 360.804 282.75 360.804C274.829 360.804 268.086 363.178 265.547 366.499H264.469V369.42C264.469 374.178 272.653 378.035 282.75 378.035C292.847 378.035 301.032 374.178 301.032 369.42V366.499H299.953Z" fill="#ADAFB3"/>
    <path d="M282.75 375.114C292.847 375.114 301.032 371.257 301.032 366.499C301.032 361.741 292.847 357.883 282.75 357.883C272.653 357.883 264.469 361.741 264.469 366.499C264.469 371.257 272.653 375.114 282.75 375.114Z" fill="#ADAFB3"/>
    <path d="M282.75 374.573C292.212 374.573 299.882 370.958 299.882 366.499C299.882 362.04 292.212 358.425 282.75 358.425C273.288 358.425 265.618 362.04 265.618 366.499C265.618 370.958 273.288 374.573 282.75 374.573Z" fill="#CACDD1"/>
    <path d="M278.368 370.318C278.469 369.745 277.449 369.161 277.449 369.161C277.449 369.161 276.267 369.506 276.166 370.079C276.075 370.597 276.897 371.123 277.058 371.221C275.882 370.942 274.851 370.594 273.981 370.188C274.175 370.152 275.186 369.942 275.51 369.465C275.869 368.936 275.249 368.28 275.249 368.28C275.249 368.28 274.046 368.48 273.687 369.009C273.379 369.463 273.793 370.011 273.916 370.157C273.142 369.79 272.5 369.376 272.002 368.922C272.052 368.915 272.08 368.91 272.08 368.91C272.08 368.91 272.058 368.879 272.01 368.83C272.273 368.791 273.154 368.636 273.537 368.233C273.991 367.756 273.575 367.114 273.575 367.114C273.575 367.114 272.424 367.245 271.97 367.721C271.65 368.058 271.762 368.476 271.857 368.693C271.794 368.645 271.717 368.592 271.624 368.539C271.234 368.095 270.974 367.618 270.854 367.114C271.178 367.112 271.954 367.077 272.539 366.802C273.297 366.445 273.446 365.82 273.446 365.82C273.446 365.82 272.366 365.774 271.608 366.131C271.158 366.342 270.923 366.648 270.806 366.862C270.803 366.845 270.799 366.828 270.797 366.811C270.732 366.283 270.827 365.77 271.067 365.282C271.245 365.296 272.103 365.349 272.863 365.102C273.716 364.825 274.121 364.275 274.121 364.275C274.121 364.275 273.142 364.175 272.289 364.452C271.669 364.653 271.287 364.998 271.124 365.172C271.453 364.564 272.01 363.996 272.771 363.484C273.049 363.517 273.779 363.58 274.527 363.445C275.478 363.274 276.094 362.849 276.094 362.849C276.094 362.849 275.169 362.702 274.219 362.873C273.907 362.929 273.632 363.012 273.403 363.099C274.059 362.734 274.829 362.405 275.702 362.119C275.917 362.135 276.73 362.175 277.499 361.982C278.395 361.756 278.889 361.299 278.889 361.299C278.889 361.299 277.931 361.207 277.036 361.432C276.406 361.59 275.976 361.862 275.775 362.011C274.9 362.288 274.124 362.607 273.456 362.962C273.52 362.897 273.576 362.828 273.617 362.753C273.862 362.296 273.465 361.819 273.465 361.819C273.465 361.819 272.67 362.082 272.425 362.539C272.18 362.996 272.577 363.473 272.577 363.473C272.577 363.473 272.599 363.465 272.634 363.452C272.022 363.864 271.542 364.313 271.204 364.79C271.209 364.675 271.177 364.548 271.075 364.417C270.722 363.965 269.68 363.639 269.68 363.639C269.68 363.639 269.21 364.047 269.563 364.5C269.876 364.902 270.729 365.203 270.919 365.266C270.675 365.761 270.579 366.28 270.646 366.815C270.658 366.915 270.678 367.013 270.701 367.111C270.701 367.111 270.701 367.112 270.701 367.112H270.701C270.809 367.564 271.032 368 271.364 368.411C271.174 368.331 270.942 368.259 270.659 368.212C269.597 368.035 268.236 368.269 268.236 368.269C268.236 368.269 268.596 368.791 269.657 368.967C270.463 369.102 271.441 368.999 271.866 368.942C272.284 369.323 272.805 369.679 273.423 370.004C275.024 370.845 277.237 371.461 279.824 371.787L279.864 371.719C278.874 371.595 277.952 371.43 277.104 371.231C277.249 371.186 278.275 370.851 278.368 370.318Z" fill="#ADAFB3"/>
    <path d="M274.834 370.85C273.589 370.816 272.345 371.299 272.345 371.299C272.345 371.299 273.119 371.837 274.364 371.871C275.608 371.905 276.852 371.422 276.852 371.422C276.852 371.422 276.079 370.885 274.834 370.85Z" fill="#ADAFB3"/>
    <path d="M271.911 369.665C270.718 369.598 269.431 369.999 269.431 369.999C269.431 369.999 270.077 370.508 271.27 370.575C272.462 370.641 273.749 370.241 273.749 370.241C273.749 370.241 273.103 369.732 271.911 369.665Z" fill="#ADAFB3"/>
    <path d="M270.701 367.18C270.701 367.18 270.611 366.681 269.718 366.399C268.824 366.116 267.465 366.157 267.465 366.157C267.465 366.157 267.554 366.656 268.447 366.939C269.341 367.221 270.701 367.18 270.701 367.18Z" fill="#ADAFB3"/>
    <path d="M290.666 370.76C289.422 370.794 288.648 371.332 288.648 371.332C288.648 371.332 289.892 371.815 291.137 371.781C292.381 371.746 293.155 371.209 293.155 371.209C293.155 371.209 291.911 370.726 290.666 370.76Z" fill="#ADAFB3"/>
    <path d="M293.59 369.574C292.397 369.641 291.751 370.15 291.751 370.15C291.751 370.15 293.038 370.551 294.231 370.484C295.423 370.417 296.069 369.908 296.069 369.908C296.069 369.908 294.782 369.507 293.59 369.574Z" fill="#ADAFB3"/>
    <path d="M294.842 368.122C294.558 368.169 294.326 368.241 294.137 368.321C294.469 367.909 294.692 367.474 294.799 367.022H294.8C294.8 367.022 294.8 367.021 294.8 367.021C294.823 366.923 294.843 366.824 294.855 366.724C294.922 366.19 294.825 365.67 294.582 365.175C294.771 365.112 295.625 364.811 295.938 364.41C296.291 363.957 295.821 363.549 295.821 363.549C295.821 363.549 294.779 363.874 294.426 364.327C294.324 364.458 294.292 364.585 294.296 364.699C293.959 364.223 293.478 363.774 292.867 363.362C292.902 363.375 292.924 363.382 292.924 363.382C292.924 363.382 293.321 362.905 293.076 362.449C292.83 361.992 292.036 361.728 292.036 361.728C292.036 361.728 291.639 362.205 291.884 362.662C291.925 362.738 291.981 362.807 292.045 362.871C291.377 362.517 290.6 362.198 289.726 361.921C289.525 361.772 289.094 361.5 288.465 361.342C287.569 361.117 286.612 361.209 286.612 361.209C286.612 361.209 287.106 361.666 288.002 361.891C288.771 362.085 289.583 362.044 289.799 362.029C290.672 362.314 291.441 362.644 292.098 363.008C291.868 362.922 291.594 362.838 291.282 362.782C290.332 362.611 289.407 362.758 289.407 362.758C289.407 362.758 290.023 363.183 290.973 363.354C291.721 363.489 292.451 363.427 292.729 363.394C293.491 363.905 294.048 364.474 294.377 365.081C294.214 364.908 293.832 364.563 293.211 364.361C292.359 364.084 291.38 364.185 291.38 364.185C291.38 364.185 291.784 364.734 292.637 365.011C293.397 365.258 294.256 365.205 294.433 365.191C294.674 365.68 294.769 366.192 294.703 366.72C294.701 366.737 294.697 366.754 294.695 366.771C294.578 366.557 294.342 366.252 293.893 366.04C293.135 365.684 292.054 365.73 292.054 365.73C292.054 365.73 292.203 366.355 292.961 366.711C293.547 366.987 294.323 367.022 294.646 367.023C294.526 367.528 294.266 368.005 293.876 368.449C293.784 368.502 293.706 368.554 293.644 368.603C293.738 368.385 293.851 367.967 293.531 367.631C293.077 367.154 291.925 367.024 291.925 367.024C291.925 367.024 291.51 367.666 291.963 368.142C292.347 368.545 293.227 368.7 293.49 368.739C293.443 368.788 293.421 368.82 293.421 368.82C293.421 368.82 293.449 368.824 293.499 368.832C293.001 369.286 292.358 369.699 291.585 370.066C291.708 369.921 292.122 369.373 291.813 368.919C291.454 368.39 290.252 368.189 290.252 368.189C290.252 368.189 289.631 368.846 289.99 369.374C290.315 369.851 291.325 370.061 291.52 370.098C290.65 370.504 289.619 370.851 288.443 371.13C288.603 371.033 289.426 370.506 289.335 369.989C289.234 369.416 288.051 369.07 288.051 369.07C288.051 369.07 287.032 369.655 287.133 370.228C287.226 370.76 288.251 371.095 288.397 371.141C287.549 371.34 286.627 371.504 285.637 371.629L285.677 371.696C288.263 371.371 290.477 370.754 292.078 369.913C292.696 369.588 293.217 369.232 293.635 368.851C294.06 368.909 295.038 369.011 295.844 368.877C296.905 368.7 297.265 368.179 297.265 368.179C297.265 368.179 295.903 367.945 294.842 368.122Z" fill="#ADAFB3"/>
    <path d="M295.782 366.308C294.889 366.59 294.8 367.089 294.8 367.089C294.8 367.089 296.159 367.13 297.053 366.848C297.946 366.566 298.036 366.067 298.036 366.067C298.036 366.067 296.676 366.026 295.782 366.308Z" fill="#ADAFB3"/>
    <path d="M282.75 368.948C285.683 368.948 288.061 367.852 288.061 366.499C288.061 365.146 285.683 364.05 282.75 364.05C279.817 364.05 277.439 365.146 277.439 366.499C277.439 367.852 279.817 368.948 282.75 368.948Z" fill="#ADAFB3"/>
    <path d="M336.8 66.6285C335.955 66.6285 335.161 66.2993 334.563 65.7017C333.33 64.4679 333.33 62.4606 334.563 61.2268C335.161 60.6292 335.955 60.3 336.8 60.3C337.645 60.3 338.439 60.6291 339.037 61.2268C340.27 62.4606 340.27 64.4679 339.037 65.7017C338.439 66.2995 337.645 66.6285 336.8 66.6285ZM336.8 61.0636C336.159 61.0636 335.556 61.3134 335.103 61.7668C334.167 62.7029 334.167 64.226 335.103 65.1621C335.556 65.6155 336.159 65.8653 336.8 65.8653C337.441 65.8653 338.044 65.6155 338.497 65.1621C339.433 64.226 339.433 62.7029 338.497 61.7669C338.044 61.3132 337.441 61.0636 336.8 61.0636Z" fill="white"/>
    <path d="M340.895 68.1214L338.497 65.7019L339.037 65.162L341.435 67.5815L340.895 68.1214Z" fill="white"/>
    <path d="M341.966 68.6524C341.698 68.9207 341.263 68.9207 340.995 68.6524L338.986 66.6427L339.957 65.671L341.966 67.6806C342.234 67.949 342.234 68.3841 341.966 68.6524Z" fill="white"/>
    <path opacity="0.5" d="M458.593 318.556L325.19 377.33L361.712 387.139L379.577 387.095L379.317 391.913L420.049 403.988L565.143 334.463L458.593 318.556Z" fill="url(#paint9_linear_113_8933)"/>
    <path d="M348.267 265.342C347.849 265.342 347.49 265.027 347.444 264.603C346.194 253.087 349.405 242.388 355.252 238.583C358.184 236.675 361.463 236.669 364.735 238.566C368.793 240.919 371.143 244.878 371.719 250.333C372.012 253.11 371.823 256.144 371.158 259.351C371.139 259.444 371.124 259.512 371.117 259.555C371.078 259.957 370.751 260.281 370.336 260.303C369.876 260.325 369.489 259.977 369.464 259.519C369.457 259.391 369.474 259.311 369.536 259.014C370.412 254.787 371.618 244.473 363.904 240C361.17 238.415 358.563 238.405 356.155 239.972C353.676 241.586 351.595 244.819 350.296 249.077C348.911 253.618 348.495 258.925 349.091 264.424C349.141 264.879 348.812 265.288 348.357 265.337C348.327 265.34 348.296 265.342 348.267 265.342Z" fill="#E9FFF6"/>
    <path d="M331.217 263.61L353.646 270.265L383.71 260.076L409.414 251.364L388.209 252.938L383.135 251.364L331.217 263.61Z" fill="#189969"/>
    <path d="M383.135 251.364L383.71 260.076L409.414 251.364L388.209 252.938L383.135 251.364Z" fill="#189969"/>
    <path d="M353.396 266.639L361.712 387.139L325.19 376.761L331.217 263.61L348.267 264.513L353.396 266.639Z" fill="#1AAB75"/>
    <path d="M361.712 387.139L421.673 355.638L409.414 251.364L353.396 266.639L361.712 387.139Z" fill="#21CC8D"/>
    <path d="M348.267 264.513L345.05 368.987L361.712 387.139L353.396 266.639L348.267 264.513Z" fill="#1EBD82"/>
    <path d="M345.05 368.987L325.19 376.761L361.712 387.139L345.05 368.987Z" fill="#21CC8D"/>
    <path d="M365.711 267.131C365.294 267.131 364.934 266.817 364.888 266.392C363.552 254.077 366.981 242.637 373.227 238.572C376.348 236.541 379.839 236.536 383.324 238.556C387.654 241.067 390.162 245.293 390.777 251.116C391.09 254.086 390.888 257.33 390.177 260.759C390.156 260.862 390.14 260.937 390.132 260.982C390.095 261.385 389.767 261.71 389.351 261.733C388.895 261.759 388.504 261.407 388.48 260.95C388.473 260.819 388.488 260.743 388.555 260.423C389.496 255.882 390.79 244.801 382.493 239.99C379.585 238.304 376.693 238.294 374.131 239.962C371.463 241.698 369.225 245.174 367.829 249.748C366.343 254.62 365.896 260.313 366.536 266.213C366.585 266.668 366.257 267.077 365.802 267.126C365.771 267.13 365.741 267.131 365.711 267.131Z" fill="#E9FFF6"/>
    <path d="M410.051 258.934L368.401 270.265L374.656 380.338L421.673 355.638L410.051 258.934Z" fill="#1CB079"/>
    <path d="M404.856 268.347C404.395 268.347 403.998 267.999 403.947 267.53C402.565 254.797 406.115 242.966 412.58 238.76C415.822 236.65 419.448 236.643 423.065 238.741C427.552 241.342 430.151 245.72 430.787 251.751C431.111 254.822 430.903 258.176 430.168 261.722C430.146 261.825 430.13 261.901 430.122 261.948C430.079 262.392 429.718 262.751 429.259 262.776C428.755 262.802 428.322 262.415 428.295 261.91C428.287 261.767 428.305 261.679 428.374 261.35C429.343 256.676 430.675 245.272 422.146 240.326C419.123 238.574 416.241 238.564 413.579 240.296C410.838 242.08 408.537 245.655 407.101 250.363C405.569 255.384 405.108 261.251 405.768 267.332C405.823 267.835 405.459 268.287 404.956 268.342C404.923 268.346 404.889 268.347 404.856 268.347Z" fill="#E9FFF6"/>
    <path d="M386.005 266.432L410.805 273.791L444.046 262.524L472.467 252.891L449.021 254.632L443.41 252.891L386.005 266.432Z" fill="#2B8A8F"/>
    <path d="M443.41 252.891L444.046 262.524L472.467 252.891L449.021 254.632L443.41 252.891Z" fill="#2B8A8F"/>
    <path d="M410.528 269.781L419.723 403.017L379.341 391.543L386.005 266.432L404.857 267.431L410.528 269.781Z" fill="#49C4CC"/>
    <path d="M419.723 403.017L486.021 368.187L472.467 252.892L410.528 269.781L419.723 403.017Z" fill="#74E2E8"/>
    <path d="M404.857 267.431L401.3 382.947L419.723 403.017L410.528 269.781L404.857 267.431Z" fill="#5AD0D6"/>
    <path d="M401.3 382.947L379.341 391.543L419.723 403.017L401.3 382.947Z" fill="#74E2E8"/>
    <path d="M424.145 270.325C423.683 270.325 423.286 269.977 423.235 269.508C421.758 255.891 425.549 243.242 432.455 238.748C435.906 236.502 439.766 236.496 443.619 238.73C448.407 241.506 451.18 246.178 451.86 252.618C452.206 255.901 451.983 259.488 451.197 263.28C451.174 263.393 451.156 263.476 451.147 263.527C451.106 263.972 450.744 264.332 450.284 264.357C449.778 264.386 449.347 263.996 449.32 263.491C449.312 263.347 449.33 263.263 449.403 262.908C450.444 257.887 451.874 245.635 442.7 240.315C439.485 238.451 436.288 238.44 433.454 240.285C430.504 242.204 428.03 246.047 426.487 251.105C424.844 256.492 424.349 262.787 425.057 269.31C425.111 269.813 424.748 270.265 424.245 270.32C424.211 270.324 424.178 270.325 424.145 270.325Z" fill="#E9FFF6"/>
    <defs>
        <linearGradient id="paint0_linear_113_8933" x1="72.1231" y1="377.65" x2="287.704" y2="274.228" gradientUnits="userSpaceOnUse">
            <stop offset="0.0043" stop-color="#0E7AA5"/>
            <stop offset="1" stop-color="white"/>
        </linearGradient>
        <linearGradient id="paint1_linear_113_8933" x1="337.381" y1="186.593" x2="481.589" y2="213.48" gradientUnits="userSpaceOnUse">
            <stop stop-color="#25D2D9"/>
            <stop offset="1" stop-color="#74FFFF"/>
        </linearGradient>
        <linearGradient id="paint2_linear_113_8933" x1="310.943" y1="342.208" x2="507.85" y2="242.356" gradientUnits="userSpaceOnUse">
            <stop offset="0.0043" stop-color="#0E7AA5"/>
            <stop offset="1" stop-color="white"/>
        </linearGradient>
        <linearGradient id="paint3_linear_113_8933" x1="262.45" y1="411.122" x2="316.111" y2="387.38" gradientUnits="userSpaceOnUse">
            <stop offset="0.0043" stop-color="#0E7AA5"/>
            <stop offset="1" stop-color="white"/>
        </linearGradient>
        <linearGradient id="paint4_linear_113_8933" x1="329.501" y1="421.633" x2="389.671" y2="395.01" gradientUnits="userSpaceOnUse">
            <stop offset="0.0043" stop-color="#0E7AA5"/>
            <stop offset="1" stop-color="white"/>
        </linearGradient>
        <linearGradient id="paint5_linear_113_8933" x1="270.955" y1="374.888" x2="316.799" y2="354.604" gradientUnits="userSpaceOnUse">
            <stop offset="0.0043" stop-color="#0E7AA5"/>
            <stop offset="1" stop-color="white"/>
        </linearGradient>
        <linearGradient id="paint6_linear_113_8933" x1="294.993" y1="249.937" x2="567.787" y2="-12.5542" gradientUnits="userSpaceOnUse">
            <stop stop-color="#38CAD1"/>
            <stop offset="0.2764" stop-color="#3DB6D7"/>
            <stop offset="0.838" stop-color="#4B84E8"/>
            <stop offset="1" stop-color="#4F74ED"/>
        </linearGradient>
        <linearGradient id="paint7_linear_113_8933" x1="399.557" y1="25.6431" x2="422.714" y2="142.272" gradientUnits="userSpaceOnUse">
            <stop offset="0.2401" stop-color="#EBBC60"/>
            <stop offset="0.5481" stop-color="white"/>
            <stop offset="0.993" stop-color="#FFBC38"/>
        </linearGradient>
        <linearGradient id="paint8_linear_113_8933" x1="78.5027" y1="71.3829" x2="110.132" y2="121.518" gradientUnits="userSpaceOnUse">
            <stop offset="0.2401" stop-color="#EBBC60"/>
            <stop offset="0.5481" stop-color="white"/>
            <stop offset="0.993" stop-color="#FFBC38"/>
        </linearGradient>
        <linearGradient id="paint9_linear_113_8933" x1="378.646" y1="387.827" x2="571.768" y2="295.179" gradientUnits="userSpaceOnUse">
            <stop offset="0.0043" stop-color="#0E7AA5"/>
            <stop offset="1" stop-color="white"/>
        </linearGradient>
    </defs>
</svg>
